<svg xmlns="http://www.w3.org/2000/svg" xmlns:xlink="http://www.w3.org/1999/xlink" viewBox="0 0 48 48" width="256px" height="256px"><defs><linearGradient id="K7faExz7lhU7dBIiEZ1BGb" x1="21.5" x2="21.5" y1="7" y2="41" gradientTransform="matrix(1.03 0 0 1 1.848 0)" gradientUnits="userSpaceOnUse"><stop offset="0" stop-color="#61c1ff"/><stop offset="1" stop-color="#2133f6"/></linearGradient><linearGradient id="K7faExz7lhU7dBIiEZ1BGa" x1="5" x2="38" y1="24" y2="24" gradientTransform="matrix(1.03 0 0 1 1.848 0)" gradientUnits="userSpaceOnUse"><stop offset="0" stop-color="#84cdfa" stop-opacity="0"/><stop offset=".393" stop-color="#83ccf9" stop-opacity=".01"/><stop offset=".534" stop-color="#7fcaf8" stop-opacity=".044"/><stop offset=".635" stop-color="#78c5f4" stop-opacity=".105"/><stop offset=".717" stop-color="#6fbff0" stop-opacity=".191"/><stop offset=".787" stop-color="#62b7ea" stop-opacity=".303"/><stop offset=".849" stop-color="#53ade2" stop-opacity=".442"/><stop offset=".905" stop-color="#40a1d9" stop-opacity=".607"/><stop offset=".954" stop-color="#2b93cf" stop-opacity=".793"/><stop offset="1" stop-color="#1484c4"/></linearGradient><linearGradient id="K7faExz7lhU7dBIiEZ1BGc" x1="-589" x2="-556" y1="-316" y2="-316" gradientTransform="matrix(1.03 0 0 1 613.848 340)" xlink:href="#K7faExz7lhU7dBIiEZ1BGa"/><linearGradient id="K7faExz7lhU7dBIiEZ1BGd" x1="-259" x2="-226" y1="-928" y2="-928" gradientTransform="matrix(1.03 0 0 1 273.848 952)" xlink:href="#K7faExz7lhU7dBIiEZ1BGa"/><linearGradient id="K7faExz7lhU7dBIiEZ1BGe" x1="335" x2="368" y1="-588" y2="-588" gradientTransform="matrix(1.03 0 0 1 -338.152 612)" xlink:href="#K7faExz7lhU7dBIiEZ1BGa"/><linearGradient id="K7faExz7lhU7dBIiEZ1BGf" x1="23" x2="23" y1="14" y2="35" gradientUnits="userSpaceOnUse"><stop offset="0" stop-color="#fff"/><stop offset=".325" stop-color="#fbfbfc"/><stop offset=".662" stop-color="#eeeef4"/><stop offset="1" stop-color="#dadae6"/></linearGradient></defs><g data-name="antenna bars"><rect width="34" height="34" x="7" y="7" fill="url(#K7faExz7lhU7dBIiEZ1BGb)" rx="3"/><g opacity=".5"><rect width="34" height="34" x="7" y="7" fill="url(#K7faExz7lhU7dBIiEZ1BGa)" rx="3"/><rect width="34" height="34" x="7" y="7" fill="url(#K7faExz7lhU7dBIiEZ1BGc)" rx="3" transform="rotate(-90 24 24)"/><rect width="34" height="34" x="7" y="7" fill="url(#K7faExz7lhU7dBIiEZ1BGd)" rx="3" transform="rotate(180 24 24)"/><rect width="34" height="34" x="7" y="7" fill="url(#K7faExz7lhU7dBIiEZ1BGe)" rx="3" transform="rotate(90 24 24)"/></g><path fill="url(#K7faExz7lhU7dBIiEZ1BGf)" d="M32,34V16a1,1,0,0,1,1-1h1a1,1,0,0,1,1,1V34a1,1,0,0,1-1,1H33A1,1,0,0,1,32,34Zm-5,1h1a1,1,0,0,0,1-1V20a1,1,0,0,0-1-1H27a1,1,0,0,0-1,1V34A1,1,0,0,0,27,35Zm-6,0h1a1,1,0,0,0,1-1V24a1,1,0,0,0-1-1H21a1,1,0,0,0-1,1V34A1,1,0,0,0,21,35Zm-6,0h1a1,1,0,0,0,1-1V28a1,1,0,0,0-1-1H15a1,1,0,0,0-1,1v6A1,1,0,0,0,15,35ZM12,14h7a1,1,0,0,1,1,1v.667a1,1,0,0,1-.2.6L17,20v3a1,1,0,0,1-1,1H15a1,1,0,0,1-1-1V20l-2.8-3.733a1,1,0,0,1-.2-.6V15A1,1,0,0,1,12,14Zm1.5,2L15,18h1l1.5-2Z"/></g></svg>