<svg viewBox="0 0 1024 1024" xmlns="http://www.w3.org/2000/svg">
  <path d="M853.333333 554.666667H170.666667c-23.466667 0-42.666667 19.2-42.666667 42.666666v256c0 23.466667 19.2 42.666667 42.666667 42.666667h682.666666c23.466667 0 42.666667-19.2 42.666667-42.666667V597.333333c0-23.466667-19.2-42.666667-42.666667-42.666666zM298.666667 810.666667c-47.146667 0-85.333333-38.186667-85.333334-85.333334s38.186667-85.333333 85.333334-85.333333 85.333333 38.186667 85.333333 85.333333-38.186667 85.333333-85.333333 85.333334zM853.333333 128H170.666667c-23.466667 0-42.666667 19.2-42.666667 42.666667v256c0 23.466667 19.2 42.666667 42.666667 42.666666h682.666666c23.466667 0 42.666667-19.2 42.666667-42.666666V170.666667c0-23.466667-19.2-42.666667-42.666667-42.666667zM298.666667 384c-47.146667 0-85.333333-38.186667-85.333334-85.333333s38.186667-85.333333 85.333334-85.333334 85.333333 38.186667 85.333333 85.333334-38.186667 85.333333-85.333333 85.333333z" fill="#0052D9"/>
</svg>
