<svg xmlns="http://www.w3.org/2000/svg"  viewBox="0 0 48 48" width="256px" height="256px"><g data-name="paperclip"><path fill="#5e5e5e" d="M16.02,43.855a10.844,10.844,0,0,1-8.6-4.211,10.7,10.7,0,0,1-2.19-5.272,10.842,10.842,0,0,1,3.1-9.081L28.008,5.612A8.375,8.375,0,0,1,39.852,17.457L23.16,34.149a5.875,5.875,0,0,1-8.308-8.308l14.363-14.4a1.377,1.377,0,0,1,1.951,0h0a1.376,1.376,0,0,1,0,1.943L16.8,27.785A3.122,3.122,0,0,0,19.2,33.111a3.265,3.265,0,0,0,2.092-.986L37.907,15.512a5.627,5.627,0,0,0,1.552-5.02,5.362,5.362,0,0,0-.806-2.02,5.636,5.636,0,0,0-8.7-.914L10.274,27.236a8.125,8.125,0,0,0,11.491,11.49l17.26-17.295a1.377,1.377,0,0,1,1.951,0h0a1.377,1.377,0,0,1,0,1.944L23.709,40.671A10.8,10.8,0,0,1,16.02,43.855Z"/><path fill="#686868" d="M16.02,43.605a10.6,10.6,0,0,1-8.408-4.121A10.451,10.451,0,0,1,5.477,34.33a10.592,10.592,0,0,1,3.029-8.862L28.185,5.789A8.141,8.141,0,0,1,40.652,6.96a7.794,7.794,0,0,1,1.273,3.1,8.116,8.116,0,0,1-2.25,7.218L22.983,33.973a5.625,5.625,0,0,1-7.955-7.955l14.365-14.4a1.126,1.126,0,0,1,1.6,0h0a1.127,1.127,0,0,1,0,1.59l-14.367,14.4a3.375,3.375,0,0,0,4.773,4.773L38.084,15.688a5.9,5.9,0,0,0,1.529-5.672,5.227,5.227,0,0,0-.554-1.365,5.891,5.891,0,0,0-9.284-1.27L10.1,27.06A8.374,8.374,0,0,0,21.941,38.9L39.2,21.608a1.126,1.126,0,0,1,1.6,0h0a1.126,1.126,0,0,1,0,1.59L23.532,40.494A10.553,10.553,0,0,1,16.02,43.605Z"/><path fill="#7b7b7b" d="M16.02,43.355a10.374,10.374,0,0,1-7.337-17.71L28.361,5.966A7.891,7.891,0,0,1,40.447,7.1a7.563,7.563,0,0,1,1.233,3.008A7.869,7.869,0,0,1,39.5,17.1L22.924,33.678a5.59,5.59,0,0,1-3.776,1.688,5.373,5.373,0,0,1-3.943-9.172L29.57,11.8a.876.876,0,0,1,1.241,0h0a.877.877,0,0,1,0,1.237l-14.367,14.4a3.625,3.625,0,0,0,5.127,5.126L38.261,15.865A6.125,6.125,0,0,0,29.6,7.2L9.92,26.883a8.625,8.625,0,0,0,12.2,12.2L39.38,21.785a.876.876,0,0,1,1.241,0h0a.877.877,0,0,1,0,1.237L23.355,40.317A10.307,10.307,0,0,1,16.02,43.355Z"/><path fill="#9e9e9e" d="M16.02,43.105A10.122,10.122,0,0,1,5.9,32.619a10.4,10.4,0,0,1,3.108-6.947L28.538,6.143a7.64,7.64,0,0,1,11.7,1.1,7.34,7.34,0,0,1,1.2,2.911,7.62,7.62,0,0,1-2.112,6.778L22.742,33.507a5.327,5.327,0,0,1-3.6,1.609,5.123,5.123,0,0,1-3.76-8.745l14.365-14.4a.626.626,0,0,1,.887,0h0a.626.626,0,0,1,0,.884l-14.366,14.4a3.873,3.873,0,0,0,2.9,6.609,4.044,4.044,0,0,0,2.668-1.221l16.6-16.6a6.375,6.375,0,0,0-9.015-9.015L9.744,26.706A8.875,8.875,0,0,0,22.3,39.256L39.557,21.962a.626.626,0,0,1,.887,0h0a.626.626,0,0,1,0,.884L23.179,40.141A10.061,10.061,0,0,1,16.02,43.105Z"/><path fill="#bcbcbc" d="M16.02,42.855a9.873,9.873,0,0,1-9.869-10.23,10.144,10.144,0,0,1,3.031-6.773L28.715,6.319a7.375,7.375,0,0,1,12.576,5.67,7.6,7.6,0,0,1-2.265,4.88L22.453,33.442a4.875,4.875,0,0,1-6.894-6.894l14.365-14.4a.376.376,0,0,1,.532,0h0a.375.375,0,0,1,0,.53l-14.366,14.4a4.125,4.125,0,0,0,5.833,5.833L38.614,16.219a6.625,6.625,0,0,0-9.369-9.368L9.567,26.529a9.125,9.125,0,0,0,12.905,12.9L39.734,22.138a.377.377,0,0,1,.533,0h0a.378.378,0,0,1,0,.531L23,39.964A9.813,9.813,0,0,1,16.02,42.855Z"/><path fill="#ededed" d="M16.02,42.605a9.625,9.625,0,0,1-6.807-16.43L28.892,6.5A7.125,7.125,0,0,1,38.968,16.573L22.276,33.266a4.625,4.625,0,1,1-6.541-6.541L30.1,12.326a.126.126,0,0,1,.178,0h0a.125.125,0,0,1,0,.177L15.912,26.9A4.375,4.375,0,1,0,22.1,33.088L38.791,16.4a6.875,6.875,0,0,0-9.723-9.722L9.39,26.353A9.374,9.374,0,0,0,22.648,39.609L39.912,22.315a.125.125,0,0,1,.177,0h0a.125.125,0,0,1,0,.177L22.825,39.787A9.564,9.564,0,0,1,16.02,42.605Z"/></g></svg>