<svg xmlns="http://www.w3.org/2000/svg" xmlns:xlink="http://www.w3.org/1999/xlink" viewBox="0 0 48 48" width="256px" height="256px"><defs><linearGradient id="Saof~x8TQlB9woiCzk8Qub" x1="21" x2="27" y1="41" y2="41" data-name="Безымянный градиент 280" gradientUnits="userSpaceOnUse"><stop offset="0" stop-color="#a8a8a8"/><stop offset=".009" stop-color="#9c9c9c"/><stop offset=".035" stop-color="gray"/><stop offset=".06" stop-color="#6c6c6c"/><stop offset=".086" stop-color="#606060"/><stop offset=".112" stop-color="#5c5c5c"/><stop offset=".342" stop-color="#fff"/><stop offset=".496" stop-color="#989898"/><stop offset=".613" stop-color="#505050"/><stop offset=".667" stop-color="#343434"/><stop offset=".813" stop-color="#7c7c7c"/><stop offset=".821" stop-color="#767676"/><stop offset=".896" stop-color="#464646"/><stop offset=".933" stop-color="#343434"/></linearGradient><linearGradient id="Saof~x8TQlB9woiCzk8Qua" x1="13.468" x2="13.534" y1="6.419" y2="51.386" data-name="Безымянный градиент 7" gradientUnits="userSpaceOnUse"><stop offset=".193" stop-color="#349eff"/><stop offset=".329" stop-color="#3199fa"/><stop offset=".502" stop-color="#2989ea"/><stop offset=".695" stop-color="#1c6fd0"/><stop offset=".9" stop-color="#0a4bad"/><stop offset="1" stop-color="#003799"/></linearGradient><linearGradient id="Saof~x8TQlB9woiCzk8Quc" x1="29.686" x2="29.291" y1="9.785" y2="38.677" xlink:href="#Saof~x8TQlB9woiCzk8Qua"/><linearGradient id="Saof~x8TQlB9woiCzk8Qud" x1="12.969" x2="13.019" y1="26.831" y2="20.748" data-name="Безымянный градиент 10" gradientUnits="userSpaceOnUse"><stop offset=".193" stop-color="#349eff"/><stop offset=".743" stop-color="#0f54b6"/><stop offset="1" stop-color="#003799"/></linearGradient><linearGradient id="Saof~x8TQlB9woiCzk8Quf" x1="29.422" x2="29.554" y1="-2.392" y2="21.41" data-name="Безымянный градиент 32" gradientUnits="userSpaceOnUse"><stop offset="0" stop-color="#ff656c"/><stop offset="0" stop-color="#ff5c63"/><stop offset="0" stop-color="#ff4449"/><stop offset="0" stop-color="#ff1e20"/><stop offset="0" stop-color="red"/><stop offset=".139" stop-color="#f40000"/><stop offset=".381" stop-color="#d80000"/><stop offset=".695" stop-color="#a90000"/><stop offset="1" stop-color="#760000"/></linearGradient><linearGradient id="Saof~x8TQlB9woiCzk8Qug" x1="29.875" x2="29.875" y1="-1.242" y2="26.55" data-name="Безымянный градиент 210" gradientUnits="userSpaceOnUse"><stop offset="0" stop-color="#ff656c"/><stop offset=".077" stop-color="#ff5c63"/><stop offset=".205" stop-color="#ff4449"/><stop offset=".367" stop-color="#ff1e20"/><stop offset=".478" stop-color="red"/><stop offset=".55" stop-color="#f40000"/><stop offset=".677" stop-color="#d80000"/><stop offset=".841" stop-color="#a90000"/><stop offset="1" stop-color="#760000"/></linearGradient><radialGradient id="Saof~x8TQlB9woiCzk8Que" cx="33.681" cy="8.966" r="19.753" data-name="Безымянный градиент 235" gradientUnits="userSpaceOnUse"><stop offset="0" stop-color="#00a1ff" stop-opacity="0"/><stop offset=".048" stop-color="#009bff" stop-opacity=".021"/><stop offset=".399" stop-color="#0075dc" stop-opacity=".435"/><stop offset=".749" stop-color="#0054bd" stop-opacity=".784"/><stop offset="1" stop-color="#0040a9"/></radialGradient><radialGradient id="Saof~x8TQlB9woiCzk8Quh" cx="26.997" cy="20.404" r="1.113" data-name="Безымянный градиент 26" gradientUnits="userSpaceOnUse"><stop offset="0" stop-color="#fff"/><stop offset=".116" stop-color="#dfdfdf"/><stop offset=".393" stop-color="#989898"/><stop offset=".522" stop-color="#7c7c7c"/><stop offset=".551" stop-color="#767676"/><stop offset=".806" stop-color="#464646"/><stop offset=".933" stop-color="#343434"/></radialGradient></defs><rect width="6" height="14" x="21" y="34" fill="url(#Saof~x8TQlB9woiCzk8Qub)"/><path fill="url(#Saof~x8TQlB9woiCzk8Qua)" d="M23,19.4V38H5.374A1.374,1.374,0,0,1,4,36.626V19.4a9.367,9.367,0,0,1,4.646-8.081,9.562,9.562,0,0,1,11.57,1.432c.223.22.425.441.628.681A9.3,9.3,0,0,1,23,19.4Z"/><path fill="url(#Saof~x8TQlB9woiCzk8Quc)" d="M45,19.4V36.77A1.229,1.229,0,0,1,43.77,38c-7.18-.01-14.54.01-21.73,0a1.422,1.422,0,0,0,.71-.36,1.071,1.071,0,0,0,.25-.69V19.4a9.244,9.244,0,0,0-.32-2.44,9.4,9.4,0,0,0-1.84-3.53c-.2-.24-.4-.46-.62-.68a.138.138,0,0,0-.04-.03,9.55,9.55,0,0,0-1.83-1.4,9.3,9.3,0,0,0-4.34-1.3L14,10.01,21,10H35.51a9.435,9.435,0,0,1,4.84,1.32,9.655,9.655,0,0,1,1.87,1.43c.22.22.42.44.62.68A9.31,9.31,0,0,1,45,19.4Z"/><path fill="#51bae1" d="M20.84,13.4c-.2-.238-.4-.457-.62-.675a9.636,9.636,0,0,0-1.87-1.418,9.633,9.633,0,0,0-9.7,0A9.269,9.269,0,0,0,4,19.325V36.939a1.322,1.322,0,0,0,.5.848A1.252,1.252,0,0,0,5,38H6a1.23,1.23,0,0,1-.7-.379,1.206,1.206,0,0,1-.3-.633V19.325a8.343,8.343,0,0,1,1.115-4.117A9.534,9.534,0,0,1,9.15,12.163a8.369,8.369,0,0,1,1.55-.7,5.463,5.463,0,0,1,.68-.2,8.564,8.564,0,0,1,2.13-.268,8.292,8.292,0,0,1,2.11.268,5.463,5.463,0,0,1,.68.2,8.082,8.082,0,0,1,1.55.705,7.918,7.918,0,0,1,1.28.922c.13.109.26.228.38.347v.01a7.783,7.783,0,0,1,.554.589A7.933,7.933,0,0,1,22,19.219V36.964a1.089,1.089,0,0,1-.245.644A1.133,1.133,0,0,1,21,38h.92A1.076,1.076,0,0,0,23,36.929v-17.6A9.191,9.191,0,0,0,20.84,13.4Z"/><rect width="11.077" height="2.438" x="7.473" y="20.485" fill="url(#Saof~x8TQlB9woiCzk8Qud)"/><path fill="url(#Saof~x8TQlB9woiCzk8Que)" d="M28.505,20.982a1.437,1.437,0,0,1-1.12,1.37,1.576,1.576,0,0,1-.38.04,1.462,1.462,0,0,1-1.5-1.41V10.692l2.11-.176Q28.06,15.75,28.505,20.982Z"/><path fill="url(#Saof~x8TQlB9woiCzk8Quf)" d="M34,2.74V6.76a.99.99,0,0,1-.99.99H28V20.5a1.5,1.5,0,0,1-1.125,1.447A1.246,1.246,0,0,1,26.5,22,1.5,1.5,0,0,1,25,20.5V2.352a.6.6,0,0,1,.6-.6H33.01A.99.99,0,0,1,34,2.74Z"/><path fill="url(#Saof~x8TQlB9woiCzk8Qug)" d="M34,2.74V6.76a.99.99,0,0,1-.99.99H28V20.5a1.5,1.5,0,0,1-1.125,1.447A1.5,1.5,0,0,1,25.75,20.5V1.75h7.26A.989.989,0,0,1,34,2.74Z"/><circle cx="26.847" cy="20.556" r=".847" fill="url(#Saof~x8TQlB9woiCzk8Quh)"/></svg>