<svg xmlns="http://www.w3.org/2000/svg"  viewBox="0 0 48 48" width="256px" height="256px"><radialGradient id="YV53rEZ4_3tnGO~RZdBPIa" cx="-44" cy="-179.952" r="17.976" gradientTransform="rotate(180 -10 -78)" gradientUnits="userSpaceOnUse"><stop offset=".895" stop-color="#8f8f8f"/><stop offset=".924" stop-color="#c2c2c2"/><stop offset=".948" stop-color="#e8e8e8"/><stop offset=".976" stop-color="#9d9d9d"/><stop offset="1" stop-color="#616161"/></radialGradient><circle cx="24" cy="24" r="18" fill="url(#YV53rEZ4_3tnGO~RZdBPIa)"/><radialGradient id="YV53rEZ4_3tnGO~RZdBPIb" cx="-112" cy="-180" r="16" gradientTransform="matrix(1 0 0 -1 136 -156)" gradientUnits="userSpaceOnUse"><stop offset=".171" stop-color="#fff"/><stop offset=".92" stop-color="#fff"/><stop offset=".932" stop-color="#fafafa"/><stop offset=".946" stop-color="#ebebeb"/><stop offset=".962" stop-color="#d3d3d3"/><stop offset=".978" stop-color="#b0b0b0"/><stop offset=".996" stop-color="#858585"/><stop offset="1" stop-color="#787878"/></radialGradient><circle cx="24" cy="24" r="16" fill="url(#YV53rEZ4_3tnGO~RZdBPIb)"/><line x1="24" x2="24" y1="11.5" y2="24" fill="none" stroke="#292929" stroke-linecap="round" stroke-linejoin="round" stroke-miterlimit="10"/><circle cx="24" cy="9.5" r=".5" fill="#7a7a7a"/><circle cx="24" cy="38.5" r=".5" fill="#7a7a7a"/><circle cx="38.5" cy="24" r=".5" fill="#7a7a7a"/><circle cx="9.5" cy="24" r=".5" fill="#7a7a7a"/><circle cx="16.75" cy="11.443" r=".5" fill="#7a7a7a"/><circle cx="31.25" cy="36.557" r=".5" fill="#7a7a7a"/><circle cx="36.557" cy="16.75" r=".5" fill="#7a7a7a"/><circle cx="11.443" cy="31.25" r=".5" fill="#7a7a7a"/><circle cx="11.443" cy="16.75" r=".5" fill="#7a7a7a"/><circle cx="36.557" cy="31.25" r=".5" fill="#7a7a7a"/><circle cx="31.25" cy="11.443" r=".5" fill="#7a7a7a"/><circle cx="16.75" cy="36.557" r=".5" fill="#7a7a7a"/><circle cx="24" cy="24" r="1.5" fill="#292929"/><line x1="17.138" x2="24" y1="28.112" y2="24" fill="none" stroke="#292929" stroke-linecap="round" stroke-linejoin="round" stroke-miterlimit="10" stroke-width="2"/></svg>