<svg xmlns="http://www.w3.org/2000/svg"  viewBox="0 0 80 80" width="160px" height="160px"><rect width="29" height="20.377" x="25.5" y="4.5" fill="#e1ebf2"/><path fill="#788b9c" d="M55,25.377H25V4h30V25.377z M26,24.377h28V5H26V24.377z"/><rect width="41" height="68.881" x="19.5" y="7.5" fill="#e1ebf2"/><path fill="#788b9c" d="M61,76.881H19V7h42V76.881z M20,75.881h40V8H20V75.881z"/><path fill="#8bb7f0" d="M25.5,12.5h7v5h-7V12.5z"/><path fill="#7496c4" d="M33,18h-8v-6h8V18z M26,17h6v-4h-6V17z"/><path fill="#8bb7f0" d="M36.5,12.5h7v5h-7V12.5z"/><path fill="#7496c4" d="M44,18h-8v-6h8V18z M37,17h6v-4h-6V17z"/><path fill="#8bb7f0" d="M47.5,12.5h7v5h-7V12.5z"/><path fill="#7496c4" d="M55,18h-8v-6h8V18z M48,17h6v-4h-6V17z"/><path fill="#8bb7f0" d="M25.5,22.5h7v5h-7V22.5z"/><path fill="#7496c4" d="M33,28h-8v-6h8V28z M26,27h6v-4h-6V27z"/><path fill="#8bb7f0" d="M36.5,22.5h7v5h-7V22.5z"/><path fill="#7496c4" d="M44,28h-8v-6h8V28z M37,27h6v-4h-6V27z"/><rect width="33" height="54" x="40.5" y="22.5" fill="#dcd5f2"/><path fill="#8b75a1" d="M74,77H40V22h34V77z M41,76h32V23H41V76z"/><path fill="#8bb7f0" d="M53.5,67.5h7v9h-7V67.5z"/><path fill="#7496c4" d="M61,77h-8V67h8V77z M54,76h6v-8h-6V76z"/><path fill="#8bb7f0" d="M45.5,35.5h23v3h-23V35.5z"/><path fill="#7496c4" d="M69,39H45v-4h24V39z M46,38h22v-2H46V38z"/><path fill="#8bb7f0" d="M45.5,43.5h23v3h-23V43.5z"/><path fill="#7496c4" d="M69,47H45v-4h24V47z M46,46h22v-2H46V46z"/><g><path fill="#8bb7f0" d="M45.5,27.5h23v3h-23V27.5z"/><path fill="#7496c4" d="M69,31H45v-4h24V31z M46,30h22v-2H46V30z"/></g><g><path fill="#8bb7f0" d="M45.5,51.5h23v3h-23V51.5z"/><path fill="#7496c4" d="M69,55H45v-4h24V55z M46,54h22v-2H46V54z"/></g><g><path fill="#8bb7f0" d="M45.5,59.5h23v3h-23V59.5z"/><path fill="#7496c4" d="M69,63H45v-4h24V63z M46,62h22v-2H46V62z"/></g><g><rect width="29" height="20.377" x="11.5" y="32.5" fill="#ffeea3"/><path fill="#ba9b48" d="M41,53.377H11V32h30V53.377z M12,52.377h28V33H12V52.377z"/></g><g><rect width="40" height="41" x="5.5" y="35.5" fill="#ffeea3"/><path fill="#ba9b48" d="M46,77H5V35h41V77z M6,76h39V36H6V76z"/></g><g><path fill="#8bb7f0" d="M22.5,67.5h7v9h-7V67.5z"/><path fill="#7496c4" d="M30,77h-8V67h8V77z M23,76h6v-8h-6V76z"/></g><g><path fill="#8bb7f0" d="M10.5,43.5h3v19h-3V43.5z"/><path fill="#7496c4" d="M14,63h-4V43h4V63z M11,62h2V44h-2V62z"/></g><g><path fill="#8bb7f0" d="M19.5,43.5h3v19h-3V43.5z"/><path fill="#7496c4" d="M23,63h-4V43h4V63z M20,62h2V44h-2V62z"/></g><g><path fill="#8bb7f0" d="M28.5,43.5h3v19h-3V43.5z"/><path fill="#7496c4" d="M32,63h-4V43h4V63z M29,62h2V44h-2V62z"/></g><g><path fill="#8bb7f0" d="M37.5,43.5h3v19h-3V43.5z"/><path fill="#7496c4" d="M41,63h-4V43h4V63z M38,62h2V44h-2V62z"/></g></svg>