<svg xmlns="http://www.w3.org/2000/svg" xmlns:xlink="http://www.w3.org/1999/xlink" viewBox="0 0 48 48" width="256px" height="256px"><defs><linearGradient id="sePbrQ1XRFi0~gQi7tvmth" x1="-1.273" x2="60.31" y1="18.215" y2="31.006" data-name="Безымянный градиент 502" gradientUnits="userSpaceOnUse"><stop offset=".346" stop-color="#e0e0e0"/><stop offset=".814" stop-color="#3b3b3b"/></linearGradient><linearGradient id="sePbrQ1XRFi0~gQi7tvmtc" x1="2.671" x2="23.11" y1="33.07" y2="51.795" data-name="Безымянный градиент 532" gradientUnits="userSpaceOnUse"><stop offset=".28" stop-color="#515d68"/><stop offset=".485" stop-color="#171c22"/></linearGradient><linearGradient id="sePbrQ1XRFi0~gQi7tvmtd" x1="12.146" x2="16.431" y1="36.908" y2="37.37" xlink:href="#sePbrQ1XRFi0~gQi7tvmta"/><linearGradient id="sePbrQ1XRFi0~gQi7tvmte" x1="8.562" x2="14.1" y1="34.052" y2="38.008" xlink:href="#sePbrQ1XRFi0~gQi7tvmta"/><linearGradient id="sePbrQ1XRFi0~gQi7tvmtf" x1="18.788" x2="12.393" y1="33.771" y2="39.507" xlink:href="#sePbrQ1XRFi0~gQi7tvmta"/><linearGradient id="sePbrQ1XRFi0~gQi7tvmtg" x1="4.874" x2="42.008" y1="25.382" y2="25.382" xlink:href="#sePbrQ1XRFi0~gQi7tvmta"/><linearGradient id="sePbrQ1XRFi0~gQi7tvmta" x1="10.447" x2="29.766" y1="38.405" y2="61.284" data-name="Безымянный градиент 467" gradientUnits="userSpaceOnUse"><stop offset=".078" stop-color="#515d68"/><stop offset=".485" stop-color="#171c22"/></linearGradient><linearGradient id="sePbrQ1XRFi0~gQi7tvmtl" x1="29.561" x2="31.192" y1="14.837" y2="17.161" xlink:href="#sePbrQ1XRFi0~gQi7tvmtb"/><linearGradient id="sePbrQ1XRFi0~gQi7tvmtb" x1="21.875" x2="22.601" y1="11.884" y2="15.774" data-name="Безымянный градиент 499" gradientUnits="userSpaceOnUse"><stop offset=".262" stop-color="#c1c1c1"/><stop offset="1" stop-color="#3b3b3b"/></linearGradient><linearGradient id="sePbrQ1XRFi0~gQi7tvmtj" x1="37.077" x2="35.544" y1="27.472" y2="27.274" xlink:href="#sePbrQ1XRFi0~gQi7tvmtb"/><linearGradient id="sePbrQ1XRFi0~gQi7tvmtk" x1="22.667" x2="33.76" y1="42.51" y2="-.888" data-name="Безымянный градиент 511" gradientUnits="userSpaceOnUse"><stop offset=".078" stop-color="#a7a7a7"/><stop offset="1" stop-color="#535353"/></linearGradient><radialGradient id="sePbrQ1XRFi0~gQi7tvmti" cx="18.877" cy="19.482" r="57.407" data-name="Безымянный градиент 477" gradientTransform="matrix(.699 .715 -.521 .51 15.827 -3.944)" gradientUnits="userSpaceOnUse"><stop offset="0" stop-color="#e0e0e0"/><stop offset=".75" stop-color="#535353"/></radialGradient><radialGradient id="sePbrQ1XRFi0~gQi7tvmtm" cx="41.394" cy="6.064" r="9.366" data-name="Безымянный градиент 531" gradientUnits="userSpaceOnUse"><stop offset="0" stop-color="#888"/><stop offset=".02" stop-color="#767676"/><stop offset=".063" stop-color="#575757"/><stop offset=".111" stop-color="#3b3b3b"/><stop offset=".165" stop-color="#252525"/><stop offset=".229" stop-color="#141414"/><stop offset=".307" stop-color="#090909"/><stop offset=".417" stop-color="#020202"/><stop offset=".723"/></radialGradient></defs><path fill="url(#sePbrQ1XRFi0~gQi7tvmtc)" d="M20.454,41.7c-1.2-1.318-3.884-2.239-7.014-2.239s-5.817.921-7.013,2.239H5.762v1.722h.019C5.986,45.415,9.331,47,13.44,47S20.9,45.415,21.1,43.423h.02V41.7Z"/><ellipse cx="13.44" cy="41.949" fill="url(#sePbrQ1XRFi0~gQi7tvmta)" rx="7.679" ry="3.77"/><path fill="url(#sePbrQ1XRFi0~gQi7tvmtd)" d="M13.18,44.952l-.059,0a.749.749,0,0,1-.689-.807L13.547,29.9a.76.76,0,0,1,.806-.689.749.749,0,0,1,.689.807L13.927,44.261A.75.75,0,0,1,13.18,44.952Z"/><path fill="url(#sePbrQ1XRFi0~gQi7tvmte)" d="M7.519,42.526a.742.742,0,0,1-.36-.092.75.75,0,0,1-.3-1.019l6.687-12.16a.75.75,0,1,1,1.314.722L8.177,42.138A.75.75,0,0,1,7.519,42.526Z"/><path fill="url(#sePbrQ1XRFi0~gQi7tvmtf)" d="M19.413,42.5a.749.749,0,0,1-.683-.44L13.217,29.927a.75.75,0,1,1,1.365-.621L20.1,41.44a.752.752,0,0,1-.373.994A.76.76,0,0,1,19.413,42.5Z"/><path fill="url(#sePbrQ1XRFi0~gQi7tvmtg)" d="M5.008,6.755S3,22.739,14.514,34.249a33.346,33.346,0,0,0,27.494,9.506"/><path fill="url(#sePbrQ1XRFi0~gQi7tvmth)" d="M44.566,43.2c-2.788,2.788-15.646-1.8-26.408-12.563S2.778,6.985,5.6,4.227C8.522,1.361,21.242,6.028,32,16.79S47.462,40.3,44.566,43.2Z"/><path fill="url(#sePbrQ1XRFi0~gQi7tvmti)" d="M43.786,41.977c-2.474,2.474-14.418-2.134-24.628-12.343S4.314,7.452,6.816,5.006c2.6-2.541,14.418,2.134,24.627,12.343S46.356,39.407,43.786,41.977Z"/><path fill="url(#sePbrQ1XRFi0~gQi7tvmtb)" d="M34.866,11.059l-1.15.27-6.13,1.45-.96.23-17.06,4.05c-.12-.22-.24-.45-.36-.67a.355.355,0,0,1,.09-.04l16.58-3.93.98-.23,6.32-1.5,1.52-.36a.375.375,0,0,1,.17.73Z"/><path fill="url(#sePbrQ1XRFi0~gQi7tvmtj)" d="M38.256,14.309l-.15,1.31-.83,7.18-.13,1.12L35.2,40.809a.169.169,0,0,1-.03.1c-.23-.1-.47-.2-.71-.32l2.04-17.53.12-1.1.81-6.92.09-.81a.353.353,0,0,1,.41-.33A.364.364,0,0,1,38.256,14.309Z"/><path fill="url(#sePbrQ1XRFi0~gQi7tvmtk)" d="M27.548,36.624c-.335-.231-.674-.469-1.014-.713q-.7-.5-1.36-1,.027-6.148-.285-12.544-.036-.731-.077-1.457l.014.009.37-.04.49-.04-.314.267Q26.46,28.865,27.548,36.624Z"/><path fill="url(#sePbrQ1XRFi0~gQi7tvmtl)" d="M25.187,21.258a.375.375,0,0,1-.23-.672l11.166-8.649a.375.375,0,0,1,.459.594L25.416,21.18A.379.379,0,0,1,25.187,21.258Z"/><path fill="url(#sePbrQ1XRFi0~gQi7tvmtm)" d="M38.068,15.675l-4.95-4.95,4.6-3.182a2.5,2.5,0,0,1,3.536,3.535Z"/></svg>