<svg xmlns="http://www.w3.org/2000/svg" xmlns:xlink="http://www.w3.org/1999/xlink" viewBox="0 0 48 48" width="256px" height="256px"><defs><radialGradient id="AtLFFcX7YIPKtp3Jh_8_Rd" cx="20.79" cy="21.076" r="21.232" gradientUnits="userSpaceOnUse"><stop offset="0" stop-color="#55a1db"/><stop offset=".575" stop-color="#2d5bc4"/><stop offset=".696" stop-color="#294caf"/><stop offset=".802" stop-color="#253d99"/></radialGradient><radialGradient id="AtLFFcX7YIPKtp3Jh_8_Re" cx="21.341" cy="13.384" r="26.043" gradientUnits="userSpaceOnUse"><stop offset="0" stop-color="#89c421"/><stop offset="1" stop-color="#639925"/></radialGradient><radialGradient id="AtLFFcX7YIPKtp3Jh_8_Rf" cx="23.489" cy="20.973" r="9.828" gradientUnits="userSpaceOnUse"><stop offset="0" stop-color="#cf0"/><stop offset=".564" stop-color="#a6e520"/><stop offset="1" stop-color="#8de019"/></radialGradient><radialGradient id="AtLFFcX7YIPKtp3Jh_8_Rg" cx="26.066" cy="24.491" r="8.022" gradientUnits="userSpaceOnUse"><stop offset="0" stop-color="#aedb2c"/><stop offset=".402" stop-color="#e3e542"/><stop offset="1" stop-color="#d97e1e"/></radialGradient><radialGradient id="AtLFFcX7YIPKtp3Jh_8_Rh" cx="25.534" cy="27.375" r="4.431" gradientUnits="userSpaceOnUse"><stop offset="0" stop-color="#aedb2c"/><stop offset="1" stop-color="#e3e542"/></radialGradient><radialGradient id="AtLFFcX7YIPKtp3Jh_8_Ra" cx="30.699" cy="26.178" r="5.943" gradientUnits="userSpaceOnUse"><stop offset=".006" stop-color="#e3e542"/><stop offset="1" stop-color="#d97e1e"/></radialGradient><radialGradient id="AtLFFcX7YIPKtp3Jh_8_Rc" cx="23.202" cy="22.609" r="12.106" gradientUnits="userSpaceOnUse"><stop offset="0" stop-color="#8de019"/><stop offset="1" stop-color="#f8d055"/></radialGradient><radialGradient id="AtLFFcX7YIPKtp3Jh_8_Ri" cx="17.362" cy="22.19" r="6.901" gradientUnits="userSpaceOnUse"><stop offset="0" stop-color="#a8e61f"/><stop offset="1" stop-color="#aae81d" stop-opacity="0"/></radialGradient><radialGradient id="AtLFFcX7YIPKtp3Jh_8_Rb" cx="30.73" cy="3.729" r="13.284" gradientUnits="userSpaceOnUse"><stop offset="0" stop-color="#d97e1e"/><stop offset="1" stop-color="#d97e1e" stop-opacity="0"/></radialGradient><radialGradient id="AtLFFcX7YIPKtp3Jh_8_Rj" cx="7.738" cy="6.163" r="12.439" gradientTransform="rotate(44.734 15.733 9.454) scale(1 2.068)" gradientUnits="userSpaceOnUse"><stop offset="0" stop-color="#a6db1a"/><stop offset="1" stop-color="#a5db1a" stop-opacity="0"/></radialGradient><radialGradient id="AtLFFcX7YIPKtp3Jh_8_Rk" cx="28.766" cy="35.537" r="3.923" xlink:href="#AtLFFcX7YIPKtp3Jh_8_Ra"/><radialGradient id="AtLFFcX7YIPKtp3Jh_8_Rl" cx="24.839" cy="32.182" r="9.527" xlink:href="#AtLFFcX7YIPKtp3Jh_8_Ra"/><radialGradient id="AtLFFcX7YIPKtp3Jh_8_Rm" cx="23.202" cy="32.796" r="4.441" xlink:href="#AtLFFcX7YIPKtp3Jh_8_Rb"/><radialGradient id="AtLFFcX7YIPKtp3Jh_8_Rn" cx="28.643" cy="17.904" r="6.23" gradientUnits="userSpaceOnUse"><stop offset="0" stop-color="#8de019"/><stop offset="1" stop-color="#f8bc55"/></radialGradient><radialGradient id="AtLFFcX7YIPKtp3Jh_8_Ro" cx="29.594" cy="17.403" r="5.984" gradientUnits="userSpaceOnUse"><stop offset="0" stop-color="#f8d055"/><stop offset="1" stop-color="#e6a135"/></radialGradient><radialGradient id="AtLFFcX7YIPKtp3Jh_8_Rp" cx="16.677" cy="24.757" r="2.884" xlink:href="#AtLFFcX7YIPKtp3Jh_8_Rc"/><radialGradient id="AtLFFcX7YIPKtp3Jh_8_Rq" cx="11.124" cy="31.057" r="2.162" xlink:href="#AtLFFcX7YIPKtp3Jh_8_Rc"/><radialGradient id="AtLFFcX7YIPKtp3Jh_8_Rr" cx="11.911" cy="11.481" r="34.834" gradientUnits="userSpaceOnUse"><stop offset=".513" stop-color="#485463" stop-opacity="0"/><stop offset=".833" stop-color="#293648" stop-opacity=".714"/><stop offset="1" stop-color="#1d2a3d"/></radialGradient><radialGradient id="AtLFFcX7YIPKtp3Jh_8_Rs" cx="11.85" cy="12.954" r="34.834" gradientUnits="userSpaceOnUse"><stop offset=".806" stop-color="#485463" stop-opacity="0"/><stop offset=".972" stop-color="#1d2a3d"/></radialGradient><radialGradient id="AtLFFcX7YIPKtp3Jh_8_Rt" cx="31.548" cy="39.055" r="31.449" gradientUnits="userSpaceOnUse"><stop offset=".752" stop-color="#fff" stop-opacity="0"/><stop offset=".774" stop-color="#fff" stop-opacity=".031"/><stop offset=".806" stop-color="#fff" stop-opacity=".117"/><stop offset=".847" stop-color="#fff" stop-opacity=".257"/><stop offset=".893" stop-color="#fff" stop-opacity=".452"/><stop offset=".945" stop-color="#fff" stop-opacity=".701"/><stop offset="1" stop-color="#fff"/></radialGradient><radialGradient id="AtLFFcX7YIPKtp3Jh_8_Ru" cx="19.162" cy="15.897" r="18.319" gradientUnits="userSpaceOnUse"><stop offset="0" stop-color="#fff" stop-opacity=".8"/><stop offset=".103" stop-color="#fff" stop-opacity=".716"/><stop offset=".317" stop-color="#fff" stop-opacity=".5"/><stop offset=".622" stop-color="#fff" stop-opacity=".157"/><stop offset=".753" stop-color="#fff" stop-opacity="0"/></radialGradient><radialGradient id="AtLFFcX7YIPKtp3Jh_8_Rv" cx="19.129" cy="29.8" r="34.834" gradientUnits="userSpaceOnUse"><stop offset=".613" stop-color="#485463" stop-opacity="0"/><stop offset=".629" stop-color="#465261" stop-opacity=".05"/><stop offset=".874" stop-color="#283547" stop-opacity=".736"/><stop offset="1" stop-color="#1d2a3d"/></radialGradient></defs><g data-name="Globe showing Asia-Australia"><path fill="#253d99" d="M41.555,24A17.551,17.551,0,0,1,10.339,35.017a3.38,3.38,0,0,1-.231-.3c-.154-.2-.3-.394-.452-.605-.125-.173-.24-.356-.365-.539-.135-.211-.269-.413-.394-.624-.222-.385-.433-.77-.625-1.164-.058-.115-.116-.221-.164-.327-.086-.173-.163-.355-.24-.538-.135-.3-.25-.606-.356-.9a5.456,5.456,0,0,1-.192-.557c-.048-.125-.087-.25-.125-.375-.115-.394-.221-.8-.317-1.2-.077-.336-.145-.683-.2-1.029-.029-.192-.058-.384-.077-.577a.115.115,0,0,1-.01-.057c-.038-.241-.057-.481-.077-.721s-.038-.5-.048-.75-.019-.5-.019-.75c0-.288.01-.577.019-.865l.029-.375c.01-.279.039-.558.077-.837.029-.24.058-.48.1-.711.019-.106.039-.221.058-.327a2.354,2.354,0,0,1,.048-.259c.048-.241.1-.481.154-.712.077-.327.163-.654.269-.981.067-.23.134-.471.221-.7q.3-.865.692-1.7c.087-.163.164-.336.25-.5.067-.144.144-.279.221-.413.01-.029.029-.048.039-.077a16.525,16.525,0,0,1,1.019-1.635c.009-.009.019-.028.029-.038.153-.221.317-.433.48-.644s.346-.442.539-.654c.173-.211.355-.4.538-.606l.058-.057c.182-.193.375-.385.567-.568.163-.163.327-.307.5-.461A17.737,17.737,0,0,1,20.5,6.8c.115-.02.24-.048.355-.068a16.469,16.469,0,0,1,2.288-.269c.279-.009.568-.019.856-.019s.567.01.846.019c.25.01.51.029.76.048.49.048.98.106,1.451.193s.962.182,1.433.307A17.487,17.487,0,0,1,32.6,8.685a16.368,16.368,0,0,1,2.163,1.442,17.494,17.494,0,0,1,6.48,10.6c.009.048.019.106.029.154s.019.106.028.154A17.605,17.605,0,0,1,41.555,24Z"/><path fill="url(#AtLFFcX7YIPKtp3Jh_8_Rd)" d="M41.3,24A17.3,17.3,0,1,1,20.55,7.048,17.056,17.056,0,0,1,24,6.7,17.291,17.291,0,0,1,41.019,20.934,16.883,16.883,0,0,1,41.3,24Z"/><polygon fill="url(#AtLFFcX7YIPKtp3Jh_8_Re)" points="26.001 29.154 26.001 28.885 25.597 28.472 23.693 28.472 23.338 28.106 23.338 27.481 22.924 27.481 22.694 27.251 22.694 26.818 22.54 26.664 22.338 26.664 21.963 26.28 21.761 26.28 21.242 25.76 20.925 25.76 20.511 25.337 19.992 25.337 19.704 25.635 19.704 25.866 19.829 25.991 20.155 25.991 21.078 26.914 21.425 26.914 22.078 27.568 22.078 28.068 23.03 29.019 23.674 29.019 24.03 29.375 25.789 29.375 26.001 29.154"/><polygon fill="url(#AtLFFcX7YIPKtp3Jh_8_Re)" points="24.55 27.472 24.953 27.876 26.39 27.876 26.793 27.473 26.793 26.997 27.183 26.607 27.183 26.294 26.907 26.018 26.907 25.69 27.417 25.18 27.417 25.027 27.056 24.665 26.766 24.665 26.471 24.96 26.172 25.259 25.772 25.259 25.271 25.76 24.88 25.76 24.682 25.958 24.16 25.958 23.928 26.191 23.928 26.489 24.149 26.711 24.148 27.07 24.55 27.472"/><polygon fill="url(#AtLFFcX7YIPKtp3Jh_8_Re)" points="29.854 24.238 29.593 23.977 29.429 23.977 29.312 24.094 29.312 24.244 29.462 24.395 29.319 24.538 29.129 24.538 28.997 24.406 28.997 23.901 28.678 23.582 28.38 23.582 28.377 23.962 28.536 24.121 28.536 24.312 28.384 24.464 28.384 24.891 28.576 25.084 28.791 25.084 29.088 25.381 29.443 25.381 29.586 25.238 29.586 25.097 29.854 24.83 29.854 24.238"/><polygon fill="url(#AtLFFcX7YIPKtp3Jh_8_Re)" points="28.879 27.91 28.879 27.402 28.587 27.11 28.587 26.789 28.785 26.592 28.785 26.372 28.535 26.122 28.002 26.122 27.619 26.506 27.614 27.003 27.318 27.298 27.318 27.575 27.125 27.768 27.125 28.031 27.421 28.327 27.995 28.327 28.203 28.119 28.671 28.119 28.879 27.91"/><polygon fill="url(#AtLFFcX7YIPKtp3Jh_8_Re)" points="28.654 22.299 28.654 21.848 28.289 21.492 27.818 21.492 27.654 21.598 27.654 21.828 27.866 22.04 27.866 22.521 27.635 22.761 27.635 23.309 27.818 23.501 28.231 23.501 28.443 23.29 29.048 23.29 29.048 23.52 29.346 23.818 29.491 23.818 29.721 23.588 29.721 23.386 29.471 23.136 29.039 23.136 28.722 22.809 28.423 22.809 28.423 22.53 28.654 22.299"/><polygon fill="url(#AtLFFcX7YIPKtp3Jh_8_Re)" points="35.118 32.315 34.439 31.635 34.439 31.074 34.849 30.664 34.849 30.212 34.448 29.811 34.002 29.811 33.742 30.07 33.742 30.491 33.488 30.746 33.488 31.227 33.169 31.546 32.942 31.546 32.648 31.252 32.285 31.252 32.034 31.001 32.034 30.766 32.311 30.49 32.311 30.203 31.922 29.814 31.459 29.814 31.196 30.077 30.855 30.077 30.265 30.667 29.965 30.667 29.742 30.444 29.227 30.444 28.926 30.746 28.926 31.176 28.567 31.536 28.058 31.536 27.595 31.998 26.486 31.998 25.478 33.006 25.478 33.701 25.481 34.278 25.966 34.798 25.966 35.624 26.348 36.006 26.673 36.006 27.03 35.648 27.926 35.648 28.235 35.34 29.091 35.34 29.447 34.984 30.09 34.984 30.636 35.53 31.055 35.53 31.474 35.949 31.474 36.307 31.799 36.632 32.807 36.632 33.104 36.336 34.715 34.724 34.715 34.49 35.412 33.793 35.412 33.126 35.118 32.832 35.118 32.315"/><polygon fill="url(#AtLFFcX7YIPKtp3Jh_8_Re)" points="32.306 13 32.306 13.504 32.502 13.701 32.415 13.846 32.666 14.097 32.845 14.097 32.845 13.559 32.753 13.468 32.753 13.278 32.899 13.132 32.899 12.928 32.648 12.677 32.559 12.749 32.559 12.57 32.354 12.365 32.354 12.185 32.084 11.915 31.911 12 31.771 12.185 32.12 12.534 32.12 12.814 32.306 13"/><polygon fill="url(#AtLFFcX7YIPKtp3Jh_8_Re)" points="31.725 17.554 32.024 17.255 32.335 17.255 32.532 17.058 32.852 17.058 33.241 16.67 33.241 16.32 33.442 16.119 33.442 15.829 33.181 15.606 32.814 15.606 32.495 15.925 32.495 16.366 32.221 16.639 31.855 16.639 31.513 16.982 31.011 16.982 30.564 17.429 30.564 17.961 30.811 18.208 31.28 18.208 31.28 17.961 31.1 17.781 31.1 17.554 31.725 17.554"/><polygon fill="url(#AtLFFcX7YIPKtp3Jh_8_Re)" points="10.436 31.596 10.109 31.269 10.109 30.308 9.763 29.962 9.561 29.962 9.359 30.164 9.359 31.692 9.705 32.038 9.705 32.634 10.167 33.105 10.753 33.105 10.753 32.519 10.436 32.202 10.436 31.596"/><polygon fill="url(#AtLFFcX7YIPKtp3Jh_8_Re)" points="32.292 36.931 31.932 36.931 31.821 36.934 31.674 37.081 31.674 37.279 31.818 37.424 31.612 37.424 31.863 37.675 32.269 37.675 32.523 37.422 32.523 37.161 32.292 36.931"/><polygon fill="url(#AtLFFcX7YIPKtp3Jh_8_Re)" points="36.028 28.645 35.442 28.645 35.047 28.25 35.047 27.904 34.673 27.529 33.894 27.529 33.615 27.241 32.548 27.241 31.865 26.558 31.298 26.558 31.019 26.856 31.019 27.222 31.423 27.626 31.423 27.653 31.307 27.653 31.423 27.77 31.558 27.904 32.125 27.904 32.721 28.5 32.721 28.904 33.057 29.241 33.903 29.241 34.384 28.76 34.788 28.76 35.413 29.385 35.788 29.385 36.057 29.116 36.278 28.895 36.028 28.645"/><polygon fill="url(#AtLFFcX7YIPKtp3Jh_8_Re)" points="29.491 28.6 29.372 28.851 29.206 28.851 29.005 29.053 28.85 29.053 28.671 29.238 28.639 29.536 28.89 29.787 29.202 29.787 29.496 29.492 29.496 29.308 29.742 29.062 29.742 28.851 29.491 28.6"/><polygon fill="url(#AtLFFcX7YIPKtp3Jh_8_Re)" points="28.012 28.821 27.352 28.821 27.105 29.068 26.71 29.068 26.556 29.221 26.127 29.294 26.378 29.545 27.11 29.545 27.423 29.858 27.921 29.858 28.293 29.487 28.293 29.102 28.012 28.821"/><polygon fill="url(#AtLFFcX7YIPKtp3Jh_8_Re)" points="22.54 26.664 22.43 26.554 22.43 26.766 22.54 26.664"/><polygon fill="url(#AtLFFcX7YIPKtp3Jh_8_Re)" points="23.338 27.481 23.087 27.23 22.846 27.47 23.17 27.605 23.338 27.481"/><polygon fill="url(#AtLFFcX7YIPKtp3Jh_8_Re)" points="19.578 25.74 19.734 25.896 19.808 25.722 19.662 25.649 19.578 25.74"/><path fill="url(#AtLFFcX7YIPKtp3Jh_8_Re)" d="M15.585,24.479V24.3l-.129-.129-.132-.132v.134l-.263,0V24.5c0,.015-.229.229-.229.229v.383l.265.264H15.5l.312-.311v-.35Z"/><path fill="url(#AtLFFcX7YIPKtp3Jh_8_Re)" d="M34.471,11.532v-.615l.572-.564a13.376,13.376,0,0,0-2.2-1.417h-1.49l-.414-.423h-.759l-.462-.471H27.164l-.4-.394H24.914l-.538-.539h-.865l-.5.5H20.675l-.452.452H18.906l-.885.885H16.579l-.538.548H14.762A17.223,17.223,0,0,0,12.6,11.128c-.173.154-.336.3-.5.461-.192.183-.384.375-.567.568l-.058.057c-.182.2-.365.395-.538.606-.192.212-.366.433-.539.654s-.326.423-.48.644c-.01.01-.02.029-.029.038v1.212l-.423.423h-.6c-.01.029-.029.048-.039.077-.077.134-.154.269-.221.413-.086.164-.163.337-.25.5v1.413l-.3.289H7.667c-.087.23-.154.471-.221.7l.548.548v2.875l-.154.154H7.629V20.617l-.452-.452c-.058.231-.106.471-.154.712a2.354,2.354,0,0,0-.048.259c-.019.106-.039.221-.058.327-.038.231-.067.471-.1.711-.038.279-.067.558-.077.837l-.029.375c-.009.288-.019.577-.019.865,0,.25.01.5.019.75s.02.5.048.75.039.48.077.721a.121.121,0,0,0,.01.058c.019.192.048.384.077.576.057.346.125.693.2,1.029.1.4.2.808.317,1.2.038.125.077.25.125.375a4.791,4.791,0,0,0,.192.557c.106.3.221.606.356.9.077.183.154.365.24.538.048.106.106.212.164.327.192.394.4.779.625,1.164.125.211.259.413.394.624.125.183.24.366.365.539.154.211.3.4.452.6a3.55,3.55,0,0,0,.231.3v-.433l-.342-.342v-.683l-.937-.936v-.443l-.654-.663V29.894l-.49-.49V26.6l.509-.51V25.049l.577-.586v-.7L9,23.51v.251H8.244l-.25-.25,2.326-2.327h.395l.336-.336v-.337l-.269-.259-.875.067-.7-.7v-.711l.366-.366h.394l.2.212v.615l.365.365h1.4l1.422,1.423v1.279l.481.481V23.7l.385.385v.282l-.251.015.251.251h.384l.21-.173V24l.415-.452v-.913l2.038-2.029h.866l.269-.278h.375l.336.336v.606l.385.394v.308l.4.4h.605l.154.154v1.827l.365.365v.365l.741.741.336.336h.423l.327-.327-.4-.4h-.23l-.548-.548v-.443l-.481-.48V23.27l.327-.336h.423l.769.769v.577l.346.346h.394v-.663l.74-.741v-.846l-.807-.807v-.414l.48-.48h.568v.355l-.289.279v.414l.3.288h.385l.356-.356v-.769l.365-.356h.817l1.577-1.576V17.733l-.558-.558v-.423H28l.472-.461v-.4h.4l.5.5v.519l.356.356h.461v-.616l-.461-.461v-.529l1-1h.452l.692-.7V12.734l-.6-.6h-.558l-.365-.365v-.4L31,10.734h1.961l.385-.394H34v1.672l.711.712h.413v-.538Z"/><polygon fill="url(#AtLFFcX7YIPKtp3Jh_8_Re)" points="33.606 14.45 33.606 14.701 33.406 14.701 33.141 14.407 32.719 14.407 32.506 14.62 32.506 15.03 32.777 15.302 33.51 15.302 33.857 14.955 33.857 14.701 33.606 14.45"/><polygon fill="url(#AtLFFcX7YIPKtp3Jh_8_Re)" points="28.183 19.735 27.902 19.735 27.606 20.032 27.606 20.448 27.414 20.64 27.141 20.64 27.392 20.891 27.825 20.891 28.014 20.702 28.334 20.702 28.553 20.482 28.553 20.105 28.183 19.735"/><polygon fill="url(#AtLFFcX7YIPKtp3Jh_8_Rf)" points="25.75 28.903 25.75 28.634 25.346 28.221 23.442 28.221 23.087 27.855 23.087 27.23 22.673 27.23 22.443 27 22.443 26.567 22.289 26.413 22.087 26.413 21.712 26.029 21.51 26.029 20.991 25.509 20.674 25.509 20.26 25.086 19.741 25.086 19.453 25.384 19.453 25.615 19.578 25.74 19.904 25.74 20.827 26.663 21.174 26.663 21.827 27.317 21.827 27.817 22.779 28.768 23.423 28.768 23.779 29.124 25.538 29.124 25.75 28.903"/><polygon fill="url(#AtLFFcX7YIPKtp3Jh_8_Rf)" points="24.4 27.323 24.804 27.727 26.241 27.727 26.644 27.324 26.644 26.848 27.034 26.457 27.034 26.145 26.758 25.868 26.758 25.541 27.268 25.031 27.268 24.877 26.906 24.516 26.617 24.516 26.322 24.811 26.023 25.11 25.622 25.11 25.122 25.61 24.731 25.61 24.533 25.809 24.011 25.809 23.778 26.042 23.778 26.34 24 26.561 23.998 26.921 24.4 27.323"/><polygon fill="url(#AtLFFcX7YIPKtp3Jh_8_Rg)" points="28.951 29.536 29.245 29.241 29.245 29.057 29.491 28.811 29.491 28.6 28.955 28.6 28.754 28.802 28.599 28.802 28.419 28.987 28.419 29.316 28.639 29.536 28.951 29.536"/><polygon fill="url(#AtLFFcX7YIPKtp3Jh_8_Rh)" points="27.172 29.607 27.67 29.607 28.042 29.236 28.042 28.851 27.761 28.57 27.101 28.57 26.854 28.817 26.459 28.817 26.127 29.149 26.127 29.294 26.859 29.294 27.172 29.607"/><polygon fill="url(#AtLFFcX7YIPKtp3Jh_8_Rf)" points="29.603 23.987 29.342 23.726 29.178 23.726 29.061 23.843 29.061 23.993 29.211 24.144 29.068 24.287 28.878 24.287 28.746 24.155 28.746 23.65 28.427 23.331 28.129 23.331 28.126 23.711 28.285 23.87 28.285 24.061 28.133 24.213 28.133 24.64 28.325 24.833 28.54 24.833 28.837 25.13 29.192 25.13 29.335 24.987 29.335 24.846 29.603 24.579 29.603 23.987"/><polygon fill="url(#AtLFFcX7YIPKtp3Jh_8_Rg)" points="28.628 27.659 28.628 27.151 28.336 26.859 28.336 26.538 28.534 26.341 28.534 26.121 28.284 25.871 27.751 25.871 27.368 26.255 27.363 26.752 27.067 27.047 27.067 27.324 26.874 27.517 26.874 27.78 27.17 28.076 27.744 28.076 27.952 27.868 28.419 27.868 28.628 27.659"/><polygon fill="url(#AtLFFcX7YIPKtp3Jh_8_Rf)" points="28.403 22.048 28.403 21.597 28.038 21.241 27.567 21.241 27.403 21.347 27.403 21.577 27.615 21.789 27.615 22.27 27.384 22.51 27.384 23.058 27.567 23.25 27.98 23.25 28.192 23.039 28.797 23.039 28.797 23.269 29.095 23.567 29.24 23.567 29.47 23.337 29.47 23.135 29.22 22.885 28.788 22.885 28.47 22.558 28.172 22.558 28.172 22.279 28.403 22.048"/><polygon fill="url(#AtLFFcX7YIPKtp3Jh_8_Ra)" points="35.777 28.394 35.191 28.394 34.796 27.999 34.796 27.653 34.421 27.278 33.643 27.278 33.364 26.99 32.297 26.99 31.614 26.307 31.047 26.307 30.768 26.605 30.768 26.971 31.172 27.374 31.172 27.519 31.307 27.653 31.874 27.653 32.47 28.249 32.47 28.653 32.806 28.99 33.652 28.99 34.133 28.509 34.537 28.509 35.162 29.134 35.537 29.134 35.806 28.865 36.027 28.643 35.777 28.394"/><path fill="url(#AtLFFcX7YIPKtp3Jh_8_Rc)" d="M34.873,11.935v.538H34.46l-.711-.712V10.089H33.1l-.385.394H30.749l-.644.634v.4l.365.365h.558l.6.6V13.7l-.692.7H30.48l-1,1v.529l.461.461v.616H29.48l-.356-.356v-.519l-.5-.5h-.4v.4l-.472.461h-.615v.423l.558.558V18.7l-1.577,1.576H25.3l-.365.356V21.4l-.356.356h-.385l-.3-.288v-.414l.289-.279v-.355h-.568l-.48.48v.414l.807.807v.846l-.74.741v.663h-.394l-.346-.346v-.577l-.769-.769H21.27l-.327.336v.693l.48.48v.442l.548.548H22.2l.4.4-.327.327h-.423l-.336-.336-.741-.741v-.365l-.365-.365V22.279l-.154-.154h-.606l-.4-.4v-.308l-.385-.394v-.606l-.336-.336h-.375l-.269.278H17.02l-2.038,2.029V23.3l-.442.452v.461l-.183.174h-.384v-.548l-.385-.385v-.788l-.481-.481V20.9l-1.422-1.423h-1.4l-.365-.365V18.5l-.2-.212H9.32l-.366.366v.711l.7.7H10.6l.2.192V20.6l-.336.336h-.395L7.743,23.26l.25.25H9v.7l-.577.587v1.038l-.509.51v2.807l.49.49v1.875l.654.663v.443L10,33.56v.683l.342.342v.432a3.38,3.38,0,0,1-.231-.3c-.154-.2-.3-.394-.452-.605-.125-.173-.24-.356-.365-.539-.135-.211-.269-.413-.394-.624-.222-.385-.433-.77-.625-1.164-.058-.115-.116-.221-.164-.327-.086-.173-.163-.355-.24-.538-.135-.3-.25-.606-.356-.9a4.791,4.791,0,0,1-.192-.557c-.048-.125-.087-.25-.125-.375-.115-.394-.221-.8-.317-1.2-.077-.336-.145-.683-.2-1.029-.029-.192-.058-.384-.077-.577a.115.115,0,0,1-.01-.057c-.038-.241-.057-.481-.077-.721s-.038-.5-.048-.75-.019-.5-.019-.75c0-.288.01-.577.019-.865l.029-.375c.01-.279.039-.558.077-.837.029-.24.058-.48.1-.711.019-.106.039-.221.058-.327a2.354,2.354,0,0,1,.048-.259c.048-.241.1-.481.154-.712l.452.452V22.51h.211l.154-.154V19.481L7.2,18.933c.067-.23.134-.471.221-.7H7.81l.3-.289V16.53c.087-.163.164-.336.25-.5.067-.144.144-.279.221-.413.01-.029.029-.048.039-.077h.6l.423-.423V13.905c.009-.009.019-.028.029-.038.153-.221.317-.433.48-.644s.346-.442.539-.654c.173-.211.355-.4.538-.606l.058-.057c.182-.193.375-.385.567-.568.163-.163.327-.307.5-.461a17.223,17.223,0,0,1,2.163-1.634H15.79l.538-.548H17.77l.885-.885h1.317l.452-.452H22.76l.5-.5h.865l.538.539h1.846l.4.394H29.47l.462.471h.759l.414.423H32.6a16.368,16.368,0,0,1,2.163,1.442l-.538.539v.615Z"/><path fill="url(#AtLFFcX7YIPKtp3Jh_8_Ri)" d="M34.873,11.935v.538H34.46l-.711-.712V10.089H33.1l-.385.394H30.749l-.644.634v.4l.365.365h.558l.6.6V13.7l-.692.7H30.48l-1,1v.529l.461.461v.616H29.48l-.356-.356v-.519l-.5-.5h-.4v.4l-.472.461h-.615v.423l.558.558V18.7l-1.577,1.576H25.3l-.365.356V21.4l-.356.356h-.385l-.3-.288v-.414l.289-.279v-.355h-.568l-.48.48v.414l.807.807v.846l-.74.741v.663h-.394l-.346-.346v-.577l-.769-.769H21.27l-.327.336v.693l.48.48v.442l.548.548H22.2l.4.4-.327.327h-.423l-.336-.336-.741-.741v-.365l-.365-.365V22.279l-.154-.154h-.606l-.4-.4v-.308l-.385-.394v-.606l-.336-.336h-.375l-.269.278H17.02l-2.038,2.029V23.3l-.442.452v.461l-.183.174h-.384v-.548l-.385-.385v-.788l-.481-.481V20.9l-1.422-1.423h-1.4l-.365-.365V18.5l-.2-.212H9.32l-.366.366v.711l.7.7H10.6l.2.192V20.6l-.336.336h-.395L7.743,23.26l.25.25H9v.7l-.577.587v1.038l-.509.51v2.807l.49.49v1.875l.654.663v.443L10,33.56v.683l.342.342v.432a3.38,3.38,0,0,1-.231-.3c-.154-.2-.3-.394-.452-.605-.125-.173-.24-.356-.365-.539-.135-.211-.269-.413-.394-.624-.222-.385-.433-.77-.625-1.164-.058-.115-.116-.221-.164-.327-.086-.173-.163-.355-.24-.538-.135-.3-.25-.606-.356-.9a4.791,4.791,0,0,1-.192-.557c-.048-.125-.087-.25-.125-.375-.115-.394-.221-.8-.317-1.2-.077-.336-.145-.683-.2-1.029-.029-.192-.058-.384-.077-.577a.115.115,0,0,1-.01-.057c-.038-.241-.057-.481-.077-.721s-.038-.5-.048-.75-.019-.5-.019-.75c0-.288.01-.577.019-.865l.029-.375c.01-.279.039-.558.077-.837.029-.24.058-.48.1-.711.019-.106.039-.221.058-.327a2.354,2.354,0,0,1,.048-.259c.048-.241.1-.481.154-.712l.452.452V22.51h.211l.154-.154V19.481L7.2,18.933c.067-.23.134-.471.221-.7H7.81l.3-.289V16.53c.087-.163.164-.336.25-.5.067-.144.144-.279.221-.413.01-.029.029-.048.039-.077h.6l.423-.423V13.905c.009-.009.019-.028.029-.038.153-.221.317-.433.48-.644s.346-.442.539-.654c.173-.211.355-.4.538-.606l.058-.057c.182-.193.375-.385.567-.568.163-.163.327-.307.5-.461a17.223,17.223,0,0,1,2.163-1.634H15.79l.538-.548H17.77l.885-.885h1.317l.452-.452H22.76l.5-.5h.865l.538.539h1.846l.4.394H29.47l.462.471h.759l.414.423H32.6a16.368,16.368,0,0,1,2.163,1.442l-.538.539v.615Z"/><path fill="url(#AtLFFcX7YIPKtp3Jh_8_Rb)" d="M34.873,11.935v.538H34.46l-.711-.712V10.089H33.1l-.385.394H30.749l-.644.634v.4l.365.365h.558l.6.6V13.7l-.692.7H30.48l-1,1v.529l.461.461v.616H29.48l-.356-.356v-.519l-.5-.5h-.4v.4l-.472.461h-.615v.423l.558.558V18.7l-1.577,1.576H25.3l-.365.356V21.4l-.356.356h-.385l-.3-.288v-.414l.289-.279v-.355h-.568l-.48.48v.414l.807.807v.846l-.74.741v.663h-.394l-.346-.346v-.577l-.769-.769H21.27l-.327.336v.693l.48.48v.442l.548.548H22.2l.4.4-.327.327h-.423l-.336-.336-.741-.741v-.365l-.365-.365V22.279l-.154-.154h-.606l-.4-.4v-.308l-.385-.394v-.606l-.336-.336h-.375l-.269.278H17.02l-2.038,2.029V23.3l-.442.452v.461l-.183.174h-.384v-.548l-.385-.385v-.788l-.481-.481V20.9l-1.422-1.423h-1.4l-.365-.365V18.5l-.2-.212H9.32l-.366.366v.711l.7.7H10.6l.2.192V20.6l-.336.336h-.395L7.743,23.26l.25.25H9v.7l-.577.587v1.038l-.509.51v2.807l.49.49v1.875l.654.663v.443L10,33.56v.683l.342.342v.432a3.38,3.38,0,0,1-.231-.3c-.154-.2-.3-.394-.452-.605-.125-.173-.24-.356-.365-.539-.135-.211-.269-.413-.394-.624-.222-.385-.433-.77-.625-1.164-.058-.115-.116-.221-.164-.327-.086-.173-.163-.355-.24-.538-.135-.3-.25-.606-.356-.9a4.791,4.791,0,0,1-.192-.557c-.048-.125-.087-.25-.125-.375-.115-.394-.221-.8-.317-1.2-.077-.336-.145-.683-.2-1.029-.029-.192-.058-.384-.077-.577a.115.115,0,0,1-.01-.057c-.038-.241-.057-.481-.077-.721s-.038-.5-.048-.75-.019-.5-.019-.75c0-.288.01-.577.019-.865l.029-.375c.01-.279.039-.558.077-.837.029-.24.058-.48.1-.711.019-.106.039-.221.058-.327a2.354,2.354,0,0,1,.048-.259c.048-.241.1-.481.154-.712l.452.452V22.51h.211l.154-.154V19.481L7.2,18.933c.067-.23.134-.471.221-.7H7.81l.3-.289V16.53c.087-.163.164-.336.25-.5.067-.144.144-.279.221-.413.01-.029.029-.048.039-.077h.6l.423-.423V13.905c.009-.009.019-.028.029-.038.153-.221.317-.433.48-.644s.346-.442.539-.654c.173-.211.355-.4.538-.606l.058-.057c.182-.193.375-.385.567-.568.163-.163.327-.307.5-.461a17.223,17.223,0,0,1,2.163-1.634H15.79l.538-.548H17.77l.885-.885h1.317l.452-.452H22.76l.5-.5h.865l.538.539h1.846l.4.394H29.47l.462.471h.759l.414.423H32.6a16.368,16.368,0,0,1,2.163,1.442l-.538.539v.615Z"/><path fill="url(#AtLFFcX7YIPKtp3Jh_8_Rj)" d="M34.873,11.935v.538H34.46l-.711-.712V10.089H33.1l-.385.394H30.749l-.644.634v.4l.365.365h.558l.6.6V13.7l-.692.7H30.48l-1,1v.529l.461.461v.616H29.48l-.356-.356v-.519l-.5-.5h-.4v.4l-.472.461h-.615v.423l.558.558V18.7l-1.577,1.576H25.3l-.365.356V21.4l-.356.356h-.385l-.3-.288v-.414l.289-.279v-.355h-.568l-.48.48v.414l.807.807v.846l-.74.741v.663h-.394l-.346-.346v-.577l-.769-.769H21.27l-.327.336v.693l.48.48v.442l.548.548H22.2l.4.4-.327.327h-.423l-.336-.336-.741-.741v-.365l-.365-.365V22.279l-.154-.154h-.606l-.4-.4v-.308l-.385-.394v-.606l-.336-.336h-.375l-.269.278H17.02l-2.038,2.029V23.3l-.442.452v.461l-.183.174h-.384v-.548l-.385-.385v-.788l-.481-.481V20.9l-1.422-1.423h-1.4l-.365-.365V18.5l-.2-.212H9.32l-.366.366v.711l.7.7H10.6l.2.192V20.6l-.336.336h-.395L7.743,23.26l.25.25H9v.7l-.577.587v1.038l-.509.51v2.807l.49.49v1.875l.654.663v.443L10,33.56v.683l.342.342v.432a3.38,3.38,0,0,1-.231-.3c-.154-.2-.3-.394-.452-.605-.125-.173-.24-.356-.365-.539-.135-.211-.269-.413-.394-.624-.222-.385-.433-.77-.625-1.164-.058-.115-.116-.221-.164-.327-.086-.173-.163-.355-.24-.538-.135-.3-.25-.606-.356-.9a4.791,4.791,0,0,1-.192-.557c-.048-.125-.087-.25-.125-.375-.115-.394-.221-.8-.317-1.2-.077-.336-.145-.683-.2-1.029-.029-.192-.058-.384-.077-.577a.115.115,0,0,1-.01-.057c-.038-.241-.057-.481-.077-.721s-.038-.5-.048-.75-.019-.5-.019-.75c0-.288.01-.577.019-.865l.029-.375c.01-.279.039-.558.077-.837.029-.24.058-.48.1-.711.019-.106.039-.221.058-.327a2.354,2.354,0,0,1,.048-.259c.048-.241.1-.481.154-.712l.452.452V22.51h.211l.154-.154V19.481L7.2,18.933c.067-.23.134-.471.221-.7H7.81l.3-.289V16.53c.087-.163.164-.336.25-.5.067-.144.144-.279.221-.413.01-.029.029-.048.039-.077h.6l.423-.423V13.905c.009-.009.019-.028.029-.038.153-.221.317-.433.48-.644s.346-.442.539-.654c.173-.211.355-.4.538-.606l.058-.057c.182-.193.375-.385.567-.568.163-.163.327-.307.5-.461a17.223,17.223,0,0,1,2.163-1.634H15.79l.538-.548H17.77l.885-.885h1.317l.452-.452H22.76l.5-.5h.865l.538.539h1.846l.4.394H29.47l.462.471h.759l.414.423H32.6a16.368,16.368,0,0,1,2.163,1.442l-.538.539v.615Z"/><polygon fill="url(#AtLFFcX7YIPKtp3Jh_8_Rk)" points="31.681 36.68 31.57 36.683 31.423 36.83 31.423 37.028 31.612 37.217 31.612 37.424 32.018 37.424 32.272 37.171 32.272 36.91 32.041 36.68 31.681 36.68"/><polygon fill="url(#AtLFFcX7YIPKtp3Jh_8_Rl)" points="34.867 32.064 34.188 31.384 34.188 30.823 34.598 30.413 34.598 29.961 34.197 29.56 33.751 29.56 33.491 29.819 33.491 30.24 33.237 30.494 33.237 30.976 32.918 31.295 32.691 31.295 32.397 31.001 32.034 31.001 31.783 30.75 31.783 30.515 32.06 30.239 32.06 29.952 31.671 29.563 31.208 29.563 30.944 29.826 30.604 29.826 30.014 30.416 29.714 30.416 29.491 30.193 28.976 30.193 28.675 30.494 28.675 30.925 28.316 31.285 27.807 31.285 27.344 31.747 26.235 31.747 25.227 32.755 25.227 33.45 25.229 34.027 25.715 34.547 25.715 35.373 26.097 35.755 26.422 35.755 26.779 35.397 27.675 35.397 27.984 35.089 28.84 35.089 29.196 34.733 29.839 34.733 30.385 35.279 30.804 35.279 31.223 35.698 31.223 36.056 31.548 36.381 32.556 36.381 32.853 36.085 34.464 34.473 34.464 34.239 35.161 33.542 35.161 32.875 34.867 32.581 34.867 32.064"/><polygon fill="url(#AtLFFcX7YIPKtp3Jh_8_Rm)" points="34.867 32.064 34.188 31.384 34.188 30.823 34.598 30.413 34.598 29.961 34.197 29.56 33.751 29.56 33.491 29.819 33.491 30.24 33.237 30.494 33.237 30.976 32.918 31.295 32.691 31.295 32.397 31.001 32.034 31.001 31.783 30.75 31.783 30.515 32.06 30.239 32.06 29.952 31.671 29.563 31.208 29.563 30.944 29.826 30.604 29.826 30.014 30.416 29.714 30.416 29.491 30.193 28.976 30.193 28.675 30.494 28.675 30.925 28.316 31.285 27.807 31.285 27.344 31.747 26.235 31.747 25.227 32.755 25.227 33.45 25.229 34.027 25.715 34.547 25.715 35.373 26.097 35.755 26.422 35.755 26.779 35.397 27.675 35.397 27.984 35.089 28.84 35.089 29.196 34.733 29.839 34.733 30.385 35.279 30.804 35.279 31.223 35.698 31.223 36.056 31.548 36.381 32.556 36.381 32.853 36.085 34.464 34.473 34.464 34.239 35.161 33.542 35.161 32.875 34.867 32.581 34.867 32.064"/><polygon fill="url(#AtLFFcX7YIPKtp3Jh_8_Rn)" points="32.055 12.749 32.055 13.253 32.251 13.45 32.251 13.683 32.415 13.846 32.594 13.846 32.594 13.308 32.502 13.217 32.502 13.027 32.648 12.881 32.648 12.677 32.487 12.677 32.308 12.498 32.308 12.319 32.103 12.114 32.103 11.934 31.918 11.749 31.66 11.749 31.52 11.934 31.869 12.283 31.869 12.563 32.055 12.749"/><polygon fill="url(#AtLFFcX7YIPKtp3Jh_8_Ro)" points="33.606 14.704 33.606 14.45 33.155 14.45 32.89 14.156 32.468 14.156 32.254 14.369 32.254 14.779 32.526 15.051 33.259 15.051 33.606 14.704"/><polygon fill="url(#AtLFFcX7YIPKtp3Jh_8_Ro)" points="31.474 17.303 31.773 17.004 32.084 17.004 32.281 16.807 32.601 16.807 32.99 16.419 32.99 16.069 33.191 15.868 33.191 15.578 32.93 15.355 32.563 15.355 32.244 15.674 32.244 16.115 31.97 16.388 31.604 16.388 31.262 16.731 30.76 16.731 30.313 17.178 30.313 17.71 30.56 17.957 31.029 17.957 31.029 17.71 30.849 17.53 30.849 17.303 31.474 17.303"/><polygon fill="url(#AtLFFcX7YIPKtp3Jh_8_Rf)" points="27.651 19.484 27.355 19.781 27.355 20.197 27.141 20.41 27.141 20.64 27.574 20.64 27.763 20.451 28.083 20.451 28.302 20.231 28.302 19.854 27.932 19.484 27.651 19.484"/><path fill="url(#AtLFFcX7YIPKtp3Jh_8_Rp)" d="M15.334,24.047l-.129-.129-.395,0v.321c0,.015-.229.229-.229.229v.383l.265.264h.407l.312-.311v-.35l-.231-.231Z"/><polygon fill="url(#AtLFFcX7YIPKtp3Jh_8_Rq)" points="10.185 31.345 9.858 31.018 9.858 30.057 9.512 29.711 9.31 29.711 9.108 29.913 9.108 31.441 9.454 31.787 9.454 32.383 9.916 32.854 10.502 32.854 10.502 32.268 10.185 31.951 10.185 31.345"/><path fill="url(#AtLFFcX7YIPKtp3Jh_8_Rr)" d="M41.555,24A17.555,17.555,0,1,1,20.5,6.8,17.258,17.258,0,0,1,24,6.445,17.549,17.549,0,0,1,41.272,20.889,17.191,17.191,0,0,1,41.555,24Z" opacity=".5"/><path fill="url(#AtLFFcX7YIPKtp3Jh_8_Rs)" d="M41.555,24A17.555,17.555,0,1,1,20.5,6.8,17.258,17.258,0,0,1,24,6.445,17.549,17.549,0,0,1,41.272,20.889,17.191,17.191,0,0,1,41.555,24Z" opacity=".5"/><path fill="url(#AtLFFcX7YIPKtp3Jh_8_Rt)" d="M41.555,24A17.555,17.555,0,1,1,20.5,6.8,17.258,17.258,0,0,1,24,6.445,17.549,17.549,0,0,1,41.272,20.889,17.191,17.191,0,0,1,41.555,24Z" opacity=".2"/><path fill="url(#AtLFFcX7YIPKtp3Jh_8_Ru)" d="M41.3,24A17.3,17.3,0,1,1,20.55,7.048,17.056,17.056,0,0,1,24,6.7,17.291,17.291,0,0,1,41.019,20.934,16.883,16.883,0,0,1,41.3,24Z" opacity=".5"/><path fill="url(#AtLFFcX7YIPKtp3Jh_8_Rv)" d="M41.555,24A17.555,17.555,0,1,1,20.5,6.8,17.258,17.258,0,0,1,24,6.445,17.549,17.549,0,0,1,41.272,20.889,17.191,17.191,0,0,1,41.555,24Z" opacity=".5"/></g></svg>