<svg xmlns="http://www.w3.org/2000/svg"  viewBox="0 0 80 80" width="160px" height="160px"><path fill="#dcd5f2" d="M8.5 72.643L8.5 13.83 31.929 8.624 31.929 72.643z"/><path fill="#8b75a1" d="M31.429,9.247v62.896H9V14.231L31.429,9.247 M32.429,8L8,13.429v59.714h24.429V8L32.429,8z"/><path fill="#dcd5f2" d="M2.5 18.5H39.5V77.5H2.5z"/><path fill="#8b75a1" d="M39,19v58H3V19H39 M40,18H2v60h38V18L40,18z"/><path fill="#dcd5f2" d="M3 72H33V78H3z" transform="rotate(-180 18 75)"/><path fill="#8b75a1" d="M16 78L41.857 78 41.857 6.908 16 12.376z"/><path fill="#8bb7f0" d="M50.5 14.5H71.5V73.5H50.5z"/><path fill="#4e7ab5" d="M71,15v58H51V15H71 M72,14H50v60h22V14L72,14z"/><path fill="#8bb7f0" d="M44.5 18.5H77.5V77.5H44.5z"/><path fill="#4e7ab5" d="M77,19v58H45V19H77 M78,18H44v60h34V18L78,18z"/><path fill="#8bb7f0" d="M49 72H77V78H49z"/><path fill="#4e7ab5" d="M38 14H66V78H38z"/><path fill="#dbf2ff" d="M28.5 2.5H53.5V70.833H28.5z"/><path fill="#7496c4" d="M53,3v67.333H29V3H53 M54,2H28v69.333h26V2L54,2z"/><path fill="#dbf2ff" d="M22.5 6.5H59.5V77.5H22.5z"/><path fill="#7496c4" d="M59,7v70H23V7H59 M60,6H22v72h38V6L60,6z"/><path fill="#dbf2ff" d="M23 72H59V78H23z"/><g><path fill="#7496c4" d="M32,14h2v-2h-2V14z M36,14h2v-2h-2V14z M40,14h2v-2h-2V14z M28,14h2v-2h-2V14z M44,14h2v-2h-2V14z M32,18h2v-2h-2V18z M36,18h2v-2h-2V18z M40,18h2v-2h-2V18z M28,18h2v-2h-2V18z M44,18h2v-2h-2V18z M32,22h2v-2h-2V22z M36,22h2 v-2h-2V22z M40,22h2v-2h-2V22z M28,22h2v-2h-2V22z M44,22h2v-2h-2V22z M32,26h2v-2h-2V26z M36,26h2v-2h-2V26z M40,26h2v-2h-2V26z M28,26h2v-2h-2V26z M44,26h2v-2h-2V26z M32,30h2v-2h-2V30z M36,30h2v-2h-2V30z M40,30h2v-2h-2V30z M28,30h2v-2h-2V30z M44,30h2 v-2h-2V30z M32,34h2v-2h-2V34z M36,34h2v-2h-2V34z M40,34h2v-2h-2V34z M28,34h2v-2h-2V34z M44,34h2v-2h-2V34z M32,38h2v-2h-2V38z M36,38h2v-2h-2V38z M40,38h2v-2h-2V38z M28,38h2v-2h-2V38z M44,38h2v-2h-2V38z M32,42h2v-2h-2V42z M36,42h2v-2h-2V42z M40,42h2 v-2h-2V42z M28,42h2v-2h-2V42z M44,42h2v-2h-2V42z M32,46h2v-2h-2V46z M36,46h2v-2h-2V46z M40,46h2v-2h-2V46z M28,46h2v-2h-2V46z M44,46h2v-2h-2V46z M32,50h2v-2h-2V50z M36,50h2v-2h-2V50z M40,50h2v-2h-2V50z M28,50h2v-2h-2V50z M44,50h2v-2h-2V50z M32,54h2 v-2h-2V54z M36,54h2v-2h-2V54z M40,54h2v-2h-2V54z M28,54h2v-2h-2V54z M44,54h2v-2h-2V54z M32,58h2v-2h-2V58z M36,58h2v-2h-2V58z M40,58h2v-2h-2V58z M28,58h2v-2h-2V58z M44,58h2v-2h-2V58z M48,14h2v-2h-2V14z M52,12v2h2v-2H52z M48,18h2v-2h-2V18z M52,18h2v-2 h-2V18z M48,22h2v-2h-2V22z M52,22h2v-2h-2V22z M48,26h2v-2h-2V26z M52,26h2v-2h-2V26z M48,30h2v-2h-2V30z M52,30h2v-2h-2V30z M48,34h2v-2h-2V34z M52,34h2v-2h-2V34z M48,38h2v-2h-2V38z M52,38h2v-2h-2V38z M48,42h2v-2h-2V42z M52,42h2v-2h-2V42z M48,46h2 v-2h-2V46z M52,46h2v-2h-2V46z M48,50h2v-2h-2V50z M52,50h2v-2h-2V50z M48,54h2v-2h-2V54z M52,54h2v-2h-2V54z M48,58h2v-2h-2V58z M52,58h2v-2h-2V58z M32,62h2v-2h-2V62z M36,62h2v-2h-2V62z M40,62h2v-2h-2V62z M28,62h2v-2h-2V62z M44,62h2v-2h-2V62z M32,66h2 v-2h-2V66z M36,66h2v-2h-2V66z M40,66h2v-2h-2V66z M28,66h2v-2h-2V66z M44,66h2v-2h-2V66z M32,70h2v-2h-2V70z M36,70h2v-2h-2V70z M40,70h2v-2h-2V70z M28,70h2v-2h-2V70z M44,70h2v-2h-2V70z M32,74h2v-2h-2V74z M36,74h2v-2h-2V74z M40,74h2v-2h-2V74z M28,74h2 v-2h-2V74z M44,74h2v-2h-2V74z M48,62h2v-2h-2V62z M52,62h2v-2h-2V62z M48,66h2v-2h-2V66z M52,66h2v-2h-2V66z M48,70h2v-2h-2V70z M52,70h2v-2h-2V70z M48,74h2v-2h-2V74z M52,74h2v-2h-2V74z M32,78h2v-2h-2V78z M36,78h2v-2h-2V78z M40,78h2v-2h-2V78z M28,78h2 v-2h-2V78z M44,78h2v-2h-2V78z M48,78h2v-2h-2V78z M52,78h2v-2h-2V78z"/></g><g><path fill="#dbf2ff" d="M66,26h2v-2h-2V26z M70,24v2h2v-2H70z M66,30h2v-2h-2V30z M70,30h2v-2h-2V30z M66,34h2v-2h-2V34z M70,34h2v-2h-2V34z M66,38h2v-2h-2V38z M70,38h2v-2h-2V38z M66,42h2v-2h-2V42z M70,42h2v-2h-2V42z M66,46h2v-2h-2V46z M70,46h2 v-2h-2V46z M66,50h2v-2h-2V50z M70,50h2v-2h-2V50z M66,54h2v-2h-2V54z M70,54h2v-2h-2V54z M66,58h2v-2h-2V58z M70,58h2v-2h-2V58z M66,62h2v-2h-2V62z M70,62h2v-2h-2V62z M66,66h2v-2h-2V66z M70,66h2v-2h-2V66z M66,70h2v-2h-2V70z M70,70h2v-2h-2V70z M66,74h2 v-2h-2V74z M70,74h2v-2h-2V74z M66,78h2v-2h-2V78z M70,78h2v-2h-2V78z"/></g><g><path fill="#fff" d="M8,26h2v-2H8V26z M12,24v2h2v-2H12z M8,30h2v-2H8V30z M12,30h2v-2h-2V30z M8,34h2v-2H8V34z M12,34 h2v-2h-2V34z M8,38h2v-2H8V38z M12,38h2v-2h-2V38z M8,42h2v-2H8V42z M12,42h2v-2h-2V42z M8,46h2v-2H8V46z M12,46h2v-2h-2V46z M8,50h2v-2H8V50z M12,50h2v-2h-2V50z M8,54h2v-2H8V54z M12,54h2v-2h-2V54z M8,58h2v-2H8V58z M12,58h2v-2h-2V58z M8,62h2v-2H8V62z M12,62h2v-2h-2V62z M8,66h2v-2H8V66z M12,66h2v-2h-2V66z M8,70h2v-2H8V70z M12,70h2v-2h-2V70z M8,74h2v-2H8V74z M12,74h2v-2h-2 V74z M8,78h2v-2H8V78z M12,78h2v-2h-2V78z"/></g><g><path fill="#8bb7f0" d="M62,24v2h2v-2H62z M62,30h2v-2h-2V30z M62,34h2v-2h-2V34z M62,38h2v-2h-2V38z M62,42h2v-2h-2V42z M62,46h2v-2h-2V46z M62,50h2v-2h-2V50z M62,54h2v-2h-2V54z M62,58h2v-2h-2V58z M62,62h2v-2h-2V62z M62,66h2v-2h-2V66z M62,70h2 v-2h-2V70z M62,74h2v-2h-2V74z M62,78h2v-2h-2V78z"/></g><g><path fill="#dcd5f2" d="M18,23.808v2.007h2v-2.007H18z M18,29.829h2v-2.007h-2V29.829z M18,33.843h2v-2.007h-2V33.843z M18,37.857h2V35.85h-2V37.857z M18,41.872h2v-2.007h-2V41.872z M18,45.886h2v-2.007h-2V45.886z M18,49.9h2v-2.007h-2V49.9z M18,53.914h2v-2.007h-2V53.914z M18,57.929h2v-2.007h-2V57.929z M18,61.943h2v-2.007h-2V61.943z M18,65.957h2V63.95h-2V65.957z M18,69.971h2v-2.007h-2V69.971z M18,73.986h2v-2.007h-2V73.986z M18,78h2v-2.007h-2V78z"/></g></svg>