<svg xmlns="http://www.w3.org/2000/svg"  viewBox="0 0 48 48" width="192px" height="192px"><linearGradient id="3qmbwxkkwEIrRDeRQwdzna" x1="24.006" x2="24.006" y1="40.993" y2="7.346" gradientUnits="userSpaceOnUse"><stop offset=".395" stop-color="#ffaa29"/><stop offset=".554" stop-color="#f29120"/><stop offset=".889" stop-color="#d25208"/><stop offset="1" stop-color="#c73c00"/></linearGradient><path fill="url(#3qmbwxkkwEIrRDeRQwdzna)" d="M37.91,40.993H10.102c-1.706,0-3.09-1.383-3.09-2.848V10.337 c0-1.948,1.383-3.331,3.09-3.331H37.91c1.706,0,3.09,1.383,3.09,3.09v27.808C41,39.609,39.617,40.993,37.91,40.993z"/><polygon fill="#994217" points="31.798,37.752 39.052,37.752 39.052,16.997 31.798,13.672"/><polygon fill="#994217" points="30.312,25.586 22,25.586 22,25.661 20.967,25.661 20.967,40.976 29.43,40.976 29.43,26.568 30.312,26.568"/><path fill="#994217" d="M13.713,18.911l-2.569-1.814l-2.645,1.814v21.632c0.469,0.277,1.014,0.45,1.604,0.45h6.255V29.188 h-2.645V18.911z"/><path fill="#52230d" d="M36.508,24.226v5.415h-8.57v11.352h9.972c1.706,0,3.09-1.383,3.09-3.09V24.226H36.508z"/><polygon fill="#52230d" points="21.087,22.538 21.087,20.688 20.129,20.688 20.129,18.707 19.071,18.707 19.071,14.931 18.316,14.931 18.316,18.707 17.258,18.707 17.258,20.688 16.301,20.688 16.301,22.538 14.915,22.538 14.915,40.995 22.472,40.995 22.472,22.538"/><rect width="1.232" height="2.116" x="16.641" y="24.2" fill="#e6885c"/><rect width="1.232" height="2.116" x="19.527" y="24.2" fill="#fce48d"/><rect width=".892" height="1.531" x="29.008" y="31.206" fill="#fce48d"/><rect width=".892" height="1.531" x="31.096" y="31.206" fill="#fce48d"/><rect width=".892" height="1.531" x="32.9" y="18.247" fill="#d1c186"/><rect width=".892" height="1.531" x="34.988" y="18.247" fill="#ba846a"/><rect width=".892" height="1.531" x="37.055" y="18.302" fill="#d1c186"/><rect width=".892" height="1.531" x="34.988" y="21.156" fill="#d1c186"/><rect width=".892" height="1.531" x="37.055" y="21.211" fill="#ba846a"/><rect width=".892" height="1.531" x="32.9" y="24.065" fill="#d1c186"/><rect width=".892" height="1.531" x="32.9" y="26.975" fill="#ba846a"/><rect width=".892" height="1.531" x="34.988" y="26.975" fill="#d1c186"/><rect width=".892" height="1.531" x="23.945" y="27.541" fill="#ba846a"/><rect width=".892" height="1.531" x="26.033" y="27.541" fill="#d1c186"/><rect width=".892" height="1.531" x="9.664" y="20.249" fill="#ba846a"/><rect width=".892" height="1.531" x="11.752" y="20.249" fill="#d1c186"/><rect width=".892" height="1.531" x="11.752" y="23.423" fill="#d1c186"/><rect width=".892" height="1.531" x="23.945" y="33.058" fill="#d1c186"/><rect width=".892" height="1.531" x="26.033" y="33.058" fill="#d1c186"/><rect width=".892" height="1.531" x="26.033" y="35.816" fill="#ba846a"/><rect width=".892" height="1.531" x="37.367" y="31.206" fill="#e6885c"/><rect width=".892" height="1.531" x="39.455" y="31.206" fill="#fce48d"/><rect width=".892" height="1.531" x="33.163" y="34.435" fill="#e6885c"/><rect width=".892" height="1.531" x="35.251" y="34.435" fill="#fce48d"/><rect width=".892" height="1.531" x="37.367" y="34.38" fill="#fce48d"/><rect width=".892" height="1.531" x="29.008" y="37.554" fill="#e6885c"/><rect width=".892" height="1.531" x="31.096" y="37.554" fill="#fce48d"/><rect width=".892" height="1.531" x="35.251" y="37.608" fill="#fce48d"/><rect width=".892" height="1.531" x="37.367" y="37.554" fill="#e6885c"/><rect width=".892" height="1.531" x="37.367" y="28.108" fill="#fce48d"/><rect width=".892" height="1.531" x="37.367" y="25.287" fill="#e6885c"/><rect width=".892" height="1.531" x="39.455" y="25.287" fill="#fce48d"/><rect width="1.232" height="2.116" x="16.641" y="27.865" fill="#fce48d"/><rect width="1.232" height="2.116" x="16.641" y="31.53" fill="#fce48d"/><rect width="1.232" height="2.116" x="19.527" y="31.53" fill="#e6885c"/><rect width="1.232" height="2.116" x="19.527" y="35.195" fill="#fce48d"/><path fill="#52230d" d="M12.296,26.467H9.934v-2.166H7.013v13.843c0,1.465,1.383,2.848,3.09,2.848h2.193V26.467z"/><rect width="3.917" height=".705" x="7" y="27.903" fill="#fce48d"/><rect width="3.917" height=".705" x="7" y="29.692" fill="#fce48d"/><rect width="3.917" height=".705" x="7" y="31.48" fill="#fce48d"/><rect width="3.917" height=".705" x="7" y="33.268" fill="#fce48d"/><rect width="3.917" height=".705" x="7" y="35.057" fill="#fce48d"/><rect width="3.917" height=".705" x="7" y="36.845" fill="#fce48d"/><path fill="#fce48d" d="M7.333,39.339h3.584v-0.705H7.069C7.12,38.879,7.213,39.113,7.333,39.339z"/></svg>