<svg xmlns="http://www.w3.org/2000/svg"  viewBox="0 0 48 48" width="256px" height="256px"><linearGradient id="QvlfYlYPkKG7C3GbFTGl8a" x1="30.386" x2="8.821" y1="53.837" y2="3.158" gradientUnits="userSpaceOnUse"><stop offset=".303" stop-color="#232c36"/><stop offset=".45" stop-color="#2a323e"/><stop offset=".675" stop-color="#3c4353"/><stop offset=".948" stop-color="#5a5f76"/><stop offset="1" stop-color="#60657d"/></linearGradient><path fill="url(#QvlfYlYPkKG7C3GbFTGl8a)" d="M25.818,5.775l-3.477,6.658l-2.642,4.96l-3.289-2.965l-6.2,10.243l-0.27,3.343l-3.235,5.715 l-1.51,8.496h37.847l-1.86-10.599c-0.01-0.03-4.448-6.793-4.448-6.793l-2.031-4.924l-3.522-4.834L29.08,9.172L25.818,5.775z"/><linearGradient id="QvlfYlYPkKG7C3GbFTGl8b" x1="39.398" x2="16.592" y1="43.198" y2="9.88" gradientUnits="userSpaceOnUse"><stop offset="0" stop-color="#b0b4bf"/><stop offset=".184" stop-color="#abafba"/><stop offset=".412" stop-color="#9ca1ad"/><stop offset=".663" stop-color="#828997"/><stop offset=".928" stop-color="#606879"/><stop offset="1" stop-color="#555e70"/></linearGradient><path fill="url(#QvlfYlYPkKG7C3GbFTGl8b)" d="M27.84,27.3l1.833,3.033l-4.259-4.583l-0.863-2.103L27.84,27.3z M20.723,26.37 l-2.049-1.051l4.906,4.421l-2.251-3.37H20.723z M26.789,15.897l1.173,3.477l3.558,3.558l-1.739-3.235l-1.011-0.93L26.789,15.897z M32.032,20.399l1.644,3.747l1.604,1.577l-1.739-3.477L32.032,20.399z" opacity=".3"/><polygon fill="#92c932" points="42.52,39.242 34.714,36.64 27.274,39.713 17.003,35.185 5.73,39.221 5.197,42.225 43.043,42.225"/><polygon fill="#457239" points="42.52,39.242 34.714,36.64 34.678,36.655 34.188,37.752 35.422,38.318 33.865,39.814 36.183,40.252 29.053,41.533 27.304,39.701 27.274,39.713 17.003,35.185 19.43,38.15 16.788,38.096 19.349,39.875 5.38,41.194 5.197,42.225 43.043,42.225"/><linearGradient id="QvlfYlYPkKG7C3GbFTGl8c" x1="16.328" x2="16.328" y1=".746" y2="33.589" gradientUnits="userSpaceOnUse"><stop offset="0" stop-color="#aeb4c4"/><stop offset=".187" stop-color="#a9afbf"/><stop offset=".418" stop-color="#9aa0b1"/><stop offset=".672" stop-color="#808899"/><stop offset=".941" stop-color="#5e6678"/><stop offset="1" stop-color="#555e70"/></linearGradient><path fill="url(#QvlfYlYPkKG7C3GbFTGl8c)" d="M6.191,36.629l0.515-2.9l3.235-5.715l0.27-3.343l6.2-10.243l0.039,0.035l0.77,3.954 l-0.377,5.823l-2.48-1.617L11.99,26.72l0.108,3.666l-2.911,2.049L6.191,36.629z M23.311,21.868 c0.323-0.539,1.496-9.003,1.496-9.003l1.658-2.871l-0.662-4.19l-3.462,6.63l-2.642,4.96l1.132,1.941L23.311,21.868z"/></svg>