<svg xmlns="http://www.w3.org/2000/svg"  viewBox="0 0 48 48" width="192px" height="192px"><path fill="#e51e25" d="M14.643,44.756c5.66-2.494,14.212-9.064,17.921-12.772s10.278-12.261,12.772-17.921l-5.342,0.134	c-0.598,0.727-1.18,1.431-1.758,2.125l-0.167-0.674c0,0-5.16-0.237-3.693,1.231c0.427,0.427,0.654,0.89,0.76,1.331	c0.221,0.914-0.094,1.876-0.715,2.582c-1.893,2.153-3.905,4.33-6.298,6.751c-2.421,2.393-4.598,4.405-6.751,6.298	c-0.706,0.621-1.668,0.936-2.582,0.715c-0.442-0.107-0.904-0.333-1.331-0.76c-1.468-1.468-1.231,3.693-1.231,3.693l0.674,0.167	c-0.695,0.578-1.398,1.16-2.125,1.758L14.643,44.756z"/><radialGradient id="hk31Iw0c7VvpCoSn66Mfga" cx="1.921" cy="25.583" r="9.007" gradientTransform="rotate(134.999 22.826 23.68)" gradientUnits="userSpaceOnUse"><stop offset="0" stop-color="#ff7448"/><stop offset=".737" stop-color="#e51e25"/><stop offset=".986" stop-color="#d31321"/></radialGradient><path fill="url(#hk31Iw0c7VvpCoSn66Mfga)" d="M30.897,12.501c-0.216,0.366-0.208,0.833,0.034,1.183c5.214,7.527,12.514,4.366,14.713-0.212	c2.58-5.373-0.945-11.316-7.168-12.455c-0.444-0.081-0.891,0.144-1.12,0.533L30.897,12.501z"/><radialGradient id="hk31Iw0c7VvpCoSn66Mfgb" cx="40.516" cy="25.064" r="7.808" gradientTransform="rotate(134.999 22.826 23.68)" gradientUnits="userSpaceOnUse"><stop offset="0" stop-color="#ff7448"/><stop offset=".737" stop-color="#e51e25"/><stop offset=".986" stop-color="#d31321"/></radialGradient><path fill="url(#hk31Iw0c7VvpCoSn66Mfgb)" d="M13.081,30.317c0.366-0.216,0.833-0.208,1.183,0.034c7.527,5.214,4.366,12.514-0.212,14.713	c-5.373,2.58-11.316-0.945-12.455-7.168c-0.081-0.444,0.144-0.891,0.533-1.12L13.081,30.317z"/><path fill="#e51e25" d="M22.007,35.8c1.227-0.563,4.438-2.751,7.834-6.109l0.001,0.001c0.007-0.007,0.013-0.014,0.02-0.021 c0.007-0.007,0.014-0.013,0.021-0.02l-0.001-0.001c3.358-3.396,5.545-6.607,6.109-7.834c0.815-1.542-0.066-2.024-0.935-1.095 L20.912,34.865C19.983,35.733,20.465,36.615,22.007,35.8z"/><path fill="#e51f25" d="M22.031,35.767c1.22-0.564,4.415-2.745,7.798-6.089l0.001,0.001c0.007-0.007,0.013-0.014,0.02-0.021 s0.014-0.013,0.021-0.02l-0.001-0.001c3.345-3.382,5.526-6.578,6.09-7.798c0.811-1.53-0.058-2.008-0.923-1.083 C34.986,20.809,21,34.795,20.948,34.844C20.023,35.709,20.501,36.578,22.031,35.767z"/><path fill="#e62026" d="M22.054,35.735c1.212-0.564,4.392-2.739,7.761-6.07l0.001,0.001c0.007-0.007,0.013-0.014,0.02-0.02 c0.007-0.007,0.014-0.013,0.02-0.02l-0.001-0.001c3.331-3.369,5.506-6.549,6.07-7.761c0.807-1.517-0.05-1.992-0.912-1.07 c-0.098,0.104-13.926,13.933-14.03,14.03C20.062,35.685,20.537,36.542,22.054,35.735z"/><path fill="#e62126" d="M22.078,35.702c1.205-0.564,4.37-2.733,7.724-6.051l0.001,0.001c0.007-0.007,0.013-0.014,0.02-0.02 c0.007-0.007,0.014-0.013,0.02-0.02l-0.001-0.001c3.318-3.355,5.487-6.52,6.051-7.724c0.803-1.504-0.041-1.976-0.9-1.058 c-0.147,0.157-13.818,13.828-13.974,13.974C20.102,35.661,20.574,36.506,22.078,35.702z"/><path fill="#e62227" d="M22.101,35.67c1.197-0.565,4.347-2.727,7.688-6.032l0.001,0.001c0.007-0.007,0.013-0.014,0.02-0.02 s0.014-0.013,0.02-0.02l-0.001-0.001c3.305-3.341,5.467-6.49,6.032-7.688c0.8-1.491-0.033-1.96-0.889-1.046 c-0.196,0.209-13.709,13.722-13.917,13.917C20.142,35.637,20.61,36.469,22.101,35.67z"/><path fill="#e62327" d="M22.125,35.637c1.19-0.565,4.324-2.721,7.651-6.012l0.001,0.001c0.007-0.007,0.013-0.014,0.02-0.02 c0.007-0.007,0.014-0.013,0.02-0.02l-0.001-0.001c3.291-3.327,5.448-6.461,6.012-7.651c0.796-1.479-0.025-1.944-0.877-1.034 c-0.245,0.261-13.601,13.617-13.86,13.86C20.181,35.612,20.646,36.433,22.125,35.637z"/><path fill="#e72427" d="M22.148,35.605c1.183-0.565,4.301-2.715,7.614-5.993l0.001,0.001c0.007-0.007,0.013-0.014,0.02-0.02 c0.007-0.007,0.014-0.013,0.02-0.02l-0.001-0.001c3.278-3.314,5.428-6.432,5.993-7.615c0.792-1.466-0.017-1.928-0.866-1.022 c-0.294,0.313-13.492,13.512-13.804,13.804C20.221,35.588,20.682,36.397,22.148,35.605z"/><path fill="#e72528" d="M22.172,35.572c1.175-0.565,4.278-2.709,7.578-5.974l0.001,0.001c0.007-0.007,0.013-0.014,0.02-0.02 c0.007-0.007,0.014-0.013,0.02-0.02l-0.001-0.001c3.265-3.3,5.408-6.403,5.974-7.578c0.788-1.453-0.008-1.911-0.854-1.01 c-0.343,0.365-13.383,13.406-13.747,13.747C20.261,35.564,20.719,36.36,22.172,35.572z"/><path fill="#e72628" d="M22.196,35.54c1.168-0.566,4.255-2.703,7.541-5.955l0.001,0.001c0.007-0.007,0.013-0.013,0.02-0.02 c0.007-0.007,0.013-0.013,0.02-0.02l-0.001-0.001c3.251-3.286,5.389-6.374,5.955-7.541c0.784-1.441,0-1.895-0.843-0.998 c-0.391,0.418-13.275,13.301-13.69,13.69C20.3,35.54,20.755,36.324,22.196,35.54z"/><path fill="#e82729" d="M22.219,35.508c1.16-0.566,4.232-2.697,7.505-5.935l0.001,0.001c0.007-0.007,0.013-0.013,0.02-0.02 s0.013-0.013,0.02-0.02l-0.001-0.001c3.238-3.272,5.369-6.344,5.935-7.505c0.78-1.428,0.008-1.879-0.831-0.986 c-0.44,0.47-13.166,13.195-13.634,13.634C20.34,35.516,20.791,36.287,22.219,35.508z"/><path fill="#e82829" d="M22.243,35.475c1.153-0.566,4.209-2.691,7.468-5.916l0,0c0.007-0.007,0.013-0.013,0.02-0.02 c0.007-0.007,0.013-0.013,0.02-0.02l0,0c3.225-3.259,5.35-6.315,5.916-7.468c0.776-1.415,0.016-1.863-0.82-0.973 c-0.489,0.522-13.057,13.09-13.577,13.577C20.379,35.491,20.827,36.251,22.243,35.475z"/><path fill="#e82929" d="M22.266,35.443c1.145-0.566,4.186-2.685,7.431-5.897l0,0c0.007-0.007,0.013-0.013,0.02-0.02 c0.007-0.007,0.013-0.013,0.02-0.02l0,0c3.211-3.245,5.33-6.286,5.897-7.431c0.772-1.403,0.025-1.847-0.809-0.961 c-0.538,0.574-12.949,12.985-13.52,13.52C20.419,35.467,20.864,36.215,22.266,35.443z"/><path fill="#e92a2a" d="M22.29,35.41c1.138-0.567,4.164-2.68,7.395-5.877l0,0c0.007-0.007,0.013-0.013,0.02-0.02 c0.007-0.007,0.013-0.013,0.02-0.02l0,0c3.198-3.231,5.311-6.257,5.877-7.395c0.768-1.39,0.033-1.831-0.797-0.949 c-0.587,0.626-12.84,12.879-13.464,13.464C20.459,35.443,20.9,36.178,22.29,35.41z"/><path fill="#e92b2a" d="M22.313,35.378c1.13-0.567,4.141-2.674,7.358-5.858l0,0c0.007-0.007,0.013-0.013,0.02-0.02 c0.007-0.007,0.013-0.013,0.02-0.02l0,0c3.185-3.217,5.291-6.228,5.858-7.358c0.764-1.377,0.041-1.815-0.786-0.937 c-0.636,0.678-12.732,12.774-13.407,13.407C20.498,35.419,20.936,36.142,22.313,35.378z"/><path fill="#e92c2b" d="M22.337,35.345c1.123-0.567,4.118-2.668,7.321-5.839l0,0c0.007-0.007,0.013-0.013,0.019-0.02 s0.013-0.013,0.02-0.02l0,0c3.171-3.204,5.272-6.198,5.839-7.321c0.76-1.364,0.049-1.799-0.774-0.925 c-0.685,0.731-12.623,12.669-13.351,13.351C20.538,35.394,20.972,36.106,22.337,35.345z"/><path fill="#e92d2b" d="M22.36,35.313c1.115-0.568,4.095-2.662,7.285-5.82l0,0c0.007-0.007,0.013-0.013,0.019-0.02 c0.007-0.007,0.013-0.013,0.02-0.019l0,0c3.158-3.19,5.252-6.169,5.82-7.285c0.756-1.352,0.058-1.783-0.763-0.913 C34.007,22.039,22.227,33.82,21.448,34.55C20.578,35.37,21.009,36.069,22.36,35.313z"/><path fill="#ea2e2b" d="M22.384,35.28c1.108-0.568,4.072-2.656,7.248-5.8l0,0c0.007-0.007,0.013-0.013,0.019-0.02 s0.013-0.013,0.02-0.019l0,0c3.145-3.176,5.232-6.14,5.8-7.248c0.753-1.339,0.066-1.767-0.751-0.901 c-0.783,0.835-12.406,12.458-13.237,13.237C20.617,35.346,21.045,36.033,22.384,35.28z"/><path fill="#ea2f2c" d="M22.408,35.248c1.101-0.568,4.049-2.65,7.211-5.781l0,0c0.007-0.007,0.013-0.013,0.019-0.02 s0.013-0.013,0.02-0.019l0,0c3.131-3.162,5.213-6.111,5.781-7.211c0.749-1.326,0.074-1.751-0.74-0.889 c-0.832,0.887-12.297,12.353-13.181,13.181C20.657,35.322,21.081,35.996,22.408,35.248z"/><path fill="#ea302c" d="M22.431,35.215c1.093-0.568,4.026-2.644,7.175-5.762l0,0c0.007-0.007,0.013-0.013,0.019-0.02 c0.007-0.007,0.013-0.013,0.02-0.019l0,0c3.118-3.149,5.193-6.082,5.762-7.175c0.745-1.314,0.082-1.735-0.728-0.876 c-0.881,0.939-12.188,12.247-13.124,13.124C20.696,35.298,21.117,35.96,22.431,35.215z"/><path fill="#eb312d" d="M22.455,35.183c1.086-0.569,4.003-2.638,7.138-5.742l0,0c0.007-0.007,0.013-0.013,0.019-0.02 s0.013-0.013,0.02-0.019l0,0c3.105-3.135,5.174-6.052,5.742-7.138c0.741-1.301,0.091-1.719-0.717-0.864 c-0.93,0.992-12.08,12.142-13.067,13.067C20.736,35.273,21.154,35.924,22.455,35.183z"/><path fill="#eb322d" d="M22.478,35.15c1.078-0.569,3.98-2.632,7.101-5.723l0,0c0.007-0.007,0.013-0.013,0.019-0.02 c0.007-0.007,0.013-0.013,0.02-0.019l0,0c3.091-3.121,5.154-6.023,5.723-7.101c0.737-1.288,0.099-1.702-0.705-0.852 c-0.979,1.044-11.971,12.037-13.011,13.011C20.776,35.249,21.19,35.887,22.478,35.15z"/><path fill="#eb332d" d="M22.502,35.118c1.071-0.569,3.957-2.626,7.065-5.704l0,0c0.007-0.007,0.013-0.013,0.019-0.02 s0.013-0.013,0.02-0.019l0,0c3.078-3.107,5.135-5.994,5.704-7.065c0.733-1.276,0.107-1.686-0.694-0.84 c-1.028,1.096-11.863,11.931-12.954,12.954C20.815,35.225,21.226,35.851,22.502,35.118z"/><path fill="#eb342e" d="M22.525,35.086c1.063-0.57,3.935-2.62,7.028-5.685l0,0c0.007-0.007,0.013-0.013,0.019-0.02 s0.013-0.013,0.02-0.019l0,0c3.065-3.094,5.115-5.965,5.685-7.028c0.729-1.263,0.115-1.67-0.682-0.828 c-1.077,1.148-11.754,11.826-12.897,12.897C20.855,35.201,21.262,35.815,22.525,35.086z"/><path fill="#ec352e" d="M22.549,35.053c1.056-0.57,3.912-2.614,6.992-5.665l0,0c0.006-0.007,0.013-0.013,0.019-0.02 c0.007-0.007,0.013-0.013,0.02-0.019l0,0c3.051-3.08,5.096-5.936,5.665-6.992c0.725-1.25,0.123-1.654-0.671-0.816 c-1.126,1.2-11.645,11.721-12.841,12.841C20.895,35.177,21.299,35.778,22.549,35.053z"/><path fill="#ec362f" d="M22.572,35.021c1.048-0.57,3.889-2.608,6.955-5.646l0,0c0.006-0.007,0.013-0.013,0.019-0.019 s0.013-0.013,0.02-0.019l0,0c3.038-3.066,5.076-5.906,5.646-6.955c0.721-1.238,0.132-1.638-0.659-0.804 c-1.174,1.253-11.537,11.615-12.784,12.784C20.934,35.152,21.335,35.742,22.572,35.021z"/><path fill="#ec372f" d="M22.596,34.988c1.041-0.57,3.866-2.602,6.918-5.627l0,0c0.006-0.007,0.013-0.013,0.019-0.019 c0.006-0.006,0.013-0.013,0.019-0.019l0,0c3.025-3.052,5.056-5.877,5.627-6.918c0.717-1.225,0.14-1.622-0.648-0.792 c-1.223,1.305-11.428,11.51-12.727,12.727C20.974,35.128,21.371,35.705,22.596,34.988z"/><path fill="#ed382f" d="M22.619,34.956c1.034-0.571,3.843-2.596,6.882-5.607l0,0c0.006-0.006,0.013-0.013,0.019-0.019 c0.006-0.006,0.013-0.013,0.019-0.019l0,0c3.011-3.039,5.037-5.848,5.607-6.882c0.713-1.212,0.148-1.606-0.636-0.779 c-1.272,1.357-11.32,11.405-12.671,12.671C21.013,35.104,21.407,35.669,22.619,34.956z"/><path fill="#ed3930" d="M22.643,34.923c1.026-0.571,3.82-2.59,6.845-5.588l0,0c0.006-0.006,0.012-0.013,0.019-0.019 c0.006-0.006,0.013-0.013,0.019-0.019l0,0c2.998-3.025,5.017-5.819,5.588-6.845c0.71-1.199,0.156-1.59-0.625-0.767 c-1.321,1.409-11.211,11.299-12.614,12.614C21.053,35.08,21.444,35.633,22.643,34.923z"/><path fill="#ed3a30" d="M22.667,34.891c1.019-0.571,3.797-2.584,6.808-5.569l0,0c0.006-0.006,0.012-0.013,0.019-0.019 c0.006-0.006,0.013-0.013,0.019-0.019l0,0c2.984-3.011,4.998-5.79,5.569-6.808c0.706-1.187,0.165-1.574-0.613-0.755 c-1.37,1.461-11.102,11.194-12.557,12.557C21.093,35.055,21.48,35.596,22.667,34.891z"/><path fill="#ee3b31" d="M22.69,34.858c1.011-0.571,3.774-2.578,6.772-5.55l0,0c0.006-0.006,0.012-0.013,0.019-0.019 c0.006-0.006,0.013-0.012,0.019-0.019l0,0c2.971-2.997,4.978-5.761,5.55-6.772c0.702-1.174,0.173-1.558-0.602-0.743 c-1.419,1.513-10.994,11.088-12.501,12.501C21.132,35.031,21.516,35.56,22.69,34.858z"/><path fill="#ee3c31" d="M22.714,34.826c1.004-0.572,3.751-2.573,6.735-5.53l0,0c0.006-0.006,0.012-0.013,0.019-0.019 c0.006-0.006,0.013-0.012,0.019-0.019l0,0c2.958-2.984,4.959-5.731,5.53-6.735c0.698-1.161,0.181-1.542-0.59-0.731 c-1.468,1.566-10.885,10.983-12.444,12.444C21.172,35.007,21.552,35.524,22.714,34.826z"/><path fill="#ee3d31" d="M22.737,34.793c0.996-0.572,3.729-2.567,6.698-5.511l0,0c0.006-0.006,0.012-0.013,0.019-0.019 c0.006-0.006,0.013-0.012,0.019-0.019l0,0c2.944-2.97,4.939-5.702,5.511-6.698c0.694-1.149,0.189-1.526-0.579-0.719 c-1.517,1.618-10.776,10.878-12.387,12.387C21.212,34.983,21.589,35.487,22.737,34.793z"/><path fill="#ee3e32" d="M22.761,34.761c0.989-0.572,3.706-2.561,6.662-5.492l0,0c0.006-0.006,0.012-0.013,0.019-0.019 c0.006-0.006,0.013-0.012,0.019-0.019l0,0c2.931-2.956,4.92-5.673,5.492-6.662c0.69-1.136,0.198-1.51-0.567-0.707 c-1.566,1.67-10.668,10.772-12.331,12.331C21.251,34.959,21.625,35.451,22.761,34.761z"/><path fill="#ef3f32" d="M22.784,34.728c0.981-0.573,3.683-2.555,6.625-5.472l0,0c0.006-0.006,0.012-0.013,0.019-0.019 c0.006-0.006,0.013-0.012,0.019-0.019l0,0c2.918-2.942,4.9-5.644,5.472-6.625c0.686-1.123,0.206-1.493-0.556-0.694 c-1.615,1.722-10.559,10.667-12.274,12.274C21.291,34.934,21.661,35.414,22.784,34.728z"/><path fill="#ef3f32" d="M22.808,34.696c0.974-0.573,3.66-2.549,6.588-5.453l0,0c0.006-0.006,0.012-0.013,0.019-0.019 s0.013-0.012,0.019-0.019l0,0c2.904-2.929,4.88-5.615,5.453-6.588c0.682-1.111,0.214-1.477-0.544-0.682 c-1.664,1.774-10.451,10.562-12.218,12.218C21.33,34.91,21.697,35.378,22.808,34.696z"/><path fill="#ef4033" d="M22.831,34.664c0.966-0.573,3.637-2.543,6.552-5.434l0,0c0.006-0.006,0.012-0.013,0.019-0.019 c0.006-0.006,0.013-0.012,0.019-0.019l0,0c2.891-2.915,4.861-5.585,5.434-6.552c0.678-1.098,0.222-1.461-0.533-0.67 c-1.713,1.827-10.342,10.456-12.161,12.161C21.37,34.886,21.734,35.342,22.831,34.664z"/><path fill="#f04133" d="M22.855,34.631c0.959-0.573,3.614-2.537,6.515-5.415l0,0c0.006-0.006,0.012-0.013,0.019-0.019 c0.006-0.006,0.013-0.012,0.019-0.019l0,0c2.878-2.901,4.841-5.556,5.415-6.515c0.674-1.085,0.231-1.445-0.521-0.658 c-1.762,1.879-10.233,10.351-12.104,12.104C21.41,34.862,21.77,35.305,22.855,34.631z"/><path fill="#f04234" d="M22.879,34.599c0.952-0.574,3.591-2.531,6.479-5.395l0,0c0.006-0.006,0.012-0.013,0.019-0.019 c0.006-0.006,0.013-0.012,0.019-0.019l0,0c2.864-2.887,4.822-5.527,5.395-6.479c0.67-1.072,0.239-1.429-0.51-0.646 c-1.811,1.931-10.125,10.246-12.048,12.048C21.449,34.838,21.806,35.269,22.879,34.599z"/><path fill="#f04334" d="M22.902,34.566c0.944-0.574,3.568-2.525,6.442-5.376l0,0c0.006-0.006,0.012-0.013,0.019-0.019 c0.006-0.006,0.013-0.012,0.019-0.019l0,0c2.851-2.874,4.802-5.498,5.376-6.442c0.666-1.06,0.247-1.413-0.498-0.634 c-1.86,1.983-10.016,10.14-11.991,11.991C21.489,34.813,21.842,35.233,22.902,34.566z"/><path fill="#f04434" d="M22.926,34.534c0.937-0.574,3.545-2.519,6.405-5.357l0,0c0.006-0.006,0.012-0.013,0.018-0.019 s0.013-0.012,0.019-0.019l0,0c2.838-2.86,4.783-5.469,5.357-6.405c0.663-1.047,0.255-1.397-0.487-0.622 c-1.908,2.035-9.908,10.035-11.934,11.934C21.529,34.789,21.879,35.196,22.926,34.534z"/><path fill="#f14535" d="M22.949,34.501c0.929-0.574,3.523-2.513,6.369-5.337l0,0c0.006-0.006,0.012-0.013,0.018-0.019 s0.013-0.012,0.019-0.018l0,0c2.824-2.846,4.763-5.439,5.338-6.369c0.659-1.034,0.264-1.381-0.475-0.61 c-1.957,2.088-9.799,9.93-11.878,11.878C21.568,34.765,21.915,35.16,22.949,34.501z"/><path fill="#f14635" d="M22.973,34.469c0.922-0.575,3.5-2.507,6.332-5.318l0,0c0.006-0.006,0.012-0.012,0.018-0.019 s0.013-0.012,0.019-0.018l0,0c2.811-2.832,4.743-5.41,5.318-6.332c0.655-1.022,0.272-1.365-0.464-0.597 c-2.006,2.14-9.69,9.824-11.821,11.821C21.608,34.741,21.951,35.123,22.973,34.469z"/><path fill="#f14736" d="M22.996,34.436c0.914-0.575,3.477-2.501,6.295-5.299l0,0c0.006-0.006,0.012-0.012,0.018-0.019 c0.006-0.006,0.012-0.012,0.019-0.018l0,0c2.798-2.819,4.724-5.381,5.299-6.295c0.651-1.009,0.28-1.349-0.452-0.585 c-2.055,2.192-9.582,9.719-11.764,11.764C21.647,34.716,21.987,35.087,22.996,34.436z"/><path fill="#f24836" d="M23.02,34.404c0.907-0.575,3.454-2.495,6.259-5.28l0,0c0.006-0.006,0.012-0.012,0.018-0.019 c0.006-0.006,0.012-0.012,0.019-0.018l0,0c2.784-2.805,4.704-5.352,5.28-6.259c0.647-0.996,0.288-1.333-0.441-0.573 c-2.104,2.244-9.473,9.614-11.708,11.708C21.687,34.692,22.024,35.051,23.02,34.404z"/><path fill="#f24936" d="M23.043,34.371c0.899-0.576,3.431-2.489,6.222-5.26l0,0c0.006-0.006,0.012-0.012,0.018-0.019 c0.006-0.006,0.012-0.012,0.019-0.018l0,0c2.771-2.791,4.685-5.323,5.26-6.222c0.643-0.984,0.297-1.317-0.429-0.561 c-2.153,2.296-9.364,9.508-11.651,11.651C21.727,34.668,22.06,35.014,23.043,34.371z"/><path fill="#f24a37" d="M23.067,34.339c0.892-0.576,3.408-2.483,6.185-5.241l0,0c0.006-0.006,0.012-0.012,0.018-0.019 c0.006-0.006,0.012-0.012,0.019-0.018l0,0c2.758-2.777,4.665-5.293,5.241-6.185c0.639-0.971,0.305-1.301-0.418-0.549 c-2.202,2.348-9.256,9.403-11.594,11.594C21.766,34.644,22.096,34.978,23.067,34.339z"/><path fill="#f34b37" d="M23.09,34.306c0.885-0.576,3.385-2.477,6.149-5.222l0,0c0.006-0.006,0.012-0.012,0.018-0.019 s0.012-0.012,0.019-0.018l0,0c2.744-2.764,4.646-5.264,5.222-6.149c0.635-0.958,0.313-1.284-0.406-0.537 C31.84,24.763,24.944,31.66,22.554,33.9C21.806,34.62,22.132,34.942,23.09,34.306z"/><path fill="#f34c38" d="M23.114,34.274c0.877-0.576,3.362-2.471,6.112-5.203l0,0c0.006-0.006,0.012-0.012,0.018-0.018 c0.006-0.006,0.012-0.012,0.019-0.018l0,0c2.731-2.75,4.626-5.235,5.203-6.112c0.631-0.945,0.321-1.268-0.395-0.525 c-2.3,2.453-9.039,9.192-11.481,11.481C21.846,34.595,22.169,34.905,23.114,34.274z"/><path fill="#f34d38" d="M23.138,34.242c0.87-0.577,3.339-2.466,6.075-5.183l0,0c0.006-0.006,0.012-0.012,0.018-0.018 c0.006-0.006,0.012-0.012,0.018-0.018l0,0c2.718-2.736,4.607-5.206,5.183-6.075c0.627-0.933,0.33-1.252-0.383-0.513 c-2.349,2.505-8.93,9.087-11.424,11.424C21.885,34.571,22.205,34.869,23.138,34.242z"/><path fill="#f34e38" d="M23.161,34.209c0.862-0.577,3.316-2.46,6.039-5.164l0,0c0.006-0.006,0.012-0.012,0.018-0.018 s0.012-0.012,0.018-0.018l0,0c2.704-2.722,4.587-5.177,5.164-6.039c0.623-0.92,0.338-1.236-0.372-0.5 c-2.398,2.557-8.821,8.981-11.368,11.368C21.925,34.547,22.241,34.832,23.161,34.209z"/><path fill="#f44f39" d="M23.185,34.177c0.855-0.577,3.294-2.454,6.002-5.145l0,0c0.006-0.006,0.012-0.012,0.018-0.018 c0.006-0.006,0.012-0.012,0.018-0.018l0,0c2.691-2.709,4.567-5.147,5.145-6.002c0.619-0.907,0.346-1.22-0.36-0.488 c-2.447,2.609-8.713,8.876-11.311,11.311C21.964,34.523,22.277,34.796,23.185,34.177z"/><path fill="#f45039" d="M23.208,34.144c0.847-0.577,3.271-2.448,5.965-5.125l0,0c0.006-0.006,0.012-0.012,0.018-0.018 c0.006-0.006,0.012-0.012,0.018-0.018l0,0c2.678-2.695,4.548-5.118,5.125-5.966c0.616-0.895,0.354-1.204-0.349-0.476 c-2.496,2.662-8.604,8.771-11.254,11.254C22.004,34.499,22.313,34.76,23.208,34.144z"/><path fill="#f4513a" d="M23.232,34.112c0.84-0.578,3.248-2.442,5.929-5.106l0,0c0.006-0.006,0.012-0.012,0.018-0.018 c0.006-0.006,0.012-0.012,0.018-0.018l0,0c2.664-2.681,4.528-5.089,5.106-5.929c0.612-0.882,0.363-1.188-0.337-0.464 c-2.545,2.714-8.495,8.665-11.198,11.198C22.044,34.474,22.35,34.723,23.232,34.112z"/><path fill="#f5523a" d="M23.255,34.079c0.832-0.578,3.225-2.436,5.892-5.087l0,0c0.006-0.006,0.012-0.012,0.018-0.018 c0.006-0.006,0.012-0.012,0.018-0.018l0,0c2.651-2.667,4.509-5.06,5.087-5.892c0.608-0.869,0.371-1.172-0.326-0.452 c-2.594,2.766-8.387,8.56-11.141,11.141C22.083,34.45,22.386,34.687,23.255,34.079z"/><path fill="#f5533a" d="M23.279,34.047c0.825-0.578,3.202-2.43,5.856-5.068l0,0c0.006-0.006,0.012-0.012,0.018-0.018 s0.012-0.012,0.018-0.018l0,0c2.638-2.654,4.489-5.031,5.068-5.856c0.604-0.857,0.379-1.156-0.314-0.44 c-2.642,2.818-8.278,8.455-11.085,11.085C22.123,34.426,22.422,34.651,23.279,34.047z"/><path fill="#f5543b" d="M23.302,34.014c0.817-0.579,3.179-2.424,5.819-5.048l0,0c0.006-0.006,0.012-0.012,0.018-0.018 c0.006-0.006,0.012-0.012,0.018-0.018l0,0c2.624-2.64,4.47-5.001,5.048-5.819c0.6-0.844,0.387-1.14-0.303-0.428 c-2.691,2.87-8.17,8.349-11.028,11.028C22.163,34.402,22.458,34.614,23.302,34.014z"/><path fill="#f5553b" d="M23.326,33.982c0.81-0.579,3.156-2.418,5.782-5.029l0,0c0.006-0.006,0.012-0.012,0.018-0.018 s0.012-0.012,0.018-0.018l0,0c2.611-2.626,4.45-4.972,5.029-5.782c0.596-0.831,0.396-1.124-0.291-0.416 c-2.74,2.923-8.061,8.244-10.971,10.971C22.202,34.377,22.495,34.578,23.326,33.982z"/><path fill="#f6563c" d="M23.35,33.949c0.803-0.579,3.133-2.412,5.746-5.01l0,0c0.006-0.006,0.012-0.012,0.018-0.018 s0.012-0.012,0.018-0.018l0,0c2.598-2.612,4.431-4.943,5.01-5.746c0.592-0.819,0.404-1.108-0.28-0.403 c-2.789,2.975-7.952,8.139-10.915,10.915C22.242,34.353,22.531,34.541,23.35,33.949z"/><path fill="#f6573c" d="M23.373,33.917c0.795-0.579,3.11-2.406,5.709-4.99l0,0c0.006-0.006,0.012-0.012,0.018-0.018 c0.006-0.006,0.012-0.012,0.018-0.018l0,0c2.584-2.599,4.411-4.914,4.99-5.709c0.588-0.806,0.412-1.092-0.269-0.391 c-2.838,3.027-7.844,8.033-10.858,10.858C22.281,34.329,22.567,34.505,23.373,33.917z"/><path fill="#f6583c" d="M23.397,33.884c0.788-0.58,3.088-2.4,5.672-4.971l0,0c0.006-0.006,0.012-0.012,0.018-0.018 s0.012-0.012,0.018-0.018l0,0c2.571-2.585,4.391-4.885,4.971-5.672c0.584-0.793,0.42-1.075-0.257-0.379 c-2.887,3.079-7.735,7.928-10.801,10.801C22.321,34.305,22.603,34.469,23.397,33.884z"/><path fill="#f7593d" d="M23.42,33.852c0.78-0.58,3.065-2.394,5.636-4.952l0,0c0.006-0.006,0.012-0.012,0.018-0.018 c0.006-0.006,0.012-0.012,0.018-0.018l0,0c2.558-2.571,4.372-4.856,4.952-5.636c0.58-0.78,0.429-1.059-0.246-0.367 c-2.936,3.131-7.627,7.823-10.745,10.745C22.361,34.281,22.64,34.432,23.42,33.852z"/><path fill="#f75a3d" d="M23.444,33.82c0.773-0.58,3.042-2.388,5.599-4.933l0,0c0.006-0.006,0.012-0.012,0.018-0.018 c0.006-0.006,0.012-0.012,0.018-0.018l0,0c2.544-2.557,4.352-4.826,4.933-5.599c0.576-0.768,0.437-1.043-0.234-0.355 c-2.985,3.183-7.518,7.717-10.688,10.688C22.4,34.256,22.676,34.396,23.444,33.82z"/><path fill="#f75b3e" d="M23.467,33.787c0.765-0.581,3.019-2.382,5.562-4.913l0,0c0.006-0.006,0.012-0.012,0.018-0.018 c0.006-0.006,0.012-0.012,0.018-0.018l0,0c2.531-2.544,4.333-4.797,4.913-5.562c0.573-0.755,0.445-1.027-0.223-0.343 c-3.034,3.236-7.409,7.612-10.631,10.631C22.44,34.232,22.712,34.36,23.467,33.787z"/><path fill="#f85c3e" d="M23.491,33.755c0.758-0.581,2.996-2.376,5.526-4.894l0,0c0.006-0.006,0.012-0.012,0.018-0.018 c0.006-0.006,0.012-0.012,0.018-0.018l0,0c2.518-2.53,4.313-4.768,4.894-5.526c0.569-0.742,0.453-1.011-0.211-0.331 c-3.083,3.288-7.301,7.507-10.575,10.575C22.48,34.208,22.748,34.323,23.491,33.755z"/><path fill="#f85d3e" d="M23.514,33.722c0.75-0.581,2.973-2.37,5.489-4.875l0,0c0.006-0.006,0.012-0.012,0.017-0.018 s0.012-0.012,0.018-0.018l0,0c2.504-2.516,4.294-4.739,4.875-5.489c0.565-0.73,0.462-0.995-0.2-0.318 c-3.132,3.34-7.192,7.401-10.518,10.518C22.519,34.184,22.785,34.287,23.514,33.722z"/><path fill="#f85e3f" d="M23.538,33.69c0.743-0.581,2.95-2.364,5.452-4.855l0,0c0.006-0.006,0.012-0.012,0.017-0.018 c0.006-0.006,0.012-0.012,0.018-0.017l0,0c2.491-2.502,4.274-4.71,4.855-5.452c0.561-0.717,0.47-0.979-0.188-0.306 c-3.181,3.392-7.083,7.296-10.461,10.461C22.559,34.16,22.821,34.25,23.538,33.69z"/><path fill="#f85f3f" d="M23.561,33.657c0.735-0.582,2.927-2.359,5.416-4.836l0,0c0.006-0.006,0.011-0.012,0.017-0.018 s0.012-0.012,0.018-0.017l0,0c2.478-2.489,4.255-4.68,4.836-5.416c0.557-0.704,0.478-0.963-0.177-0.294 c-3.23,3.444-6.975,7.19-10.405,10.405C22.599,34.135,22.857,34.214,23.561,33.657z"/><path fill="#f96040" d="M23.585,33.625c0.728-0.582,2.904-2.353,5.379-4.817l0,0c0.006-0.006,0.011-0.012,0.017-0.018 c0.006-0.006,0.012-0.012,0.018-0.017l0,0c2.464-2.475,4.235-4.651,4.817-5.379c0.553-0.692,0.486-0.947-0.165-0.282 c-3.279,3.497-6.866,7.085-10.348,10.348C22.638,34.111,22.893,34.178,23.585,33.625z"/><path fill="#f96140" d="M23.609,33.592c0.721-0.582,2.882-2.347,5.343-4.798l0,0c0.006-0.006,0.011-0.012,0.017-0.018 c0.006-0.006,0.012-0.011,0.018-0.017l0,0c2.451-2.461,4.215-4.622,4.798-5.343c0.549-0.679,0.495-0.931-0.154-0.27 c-3.328,3.549-6.758,6.98-10.291,10.291C22.678,34.087,22.93,34.141,23.609,33.592z"/><g><linearGradient id="hk31Iw0c7VvpCoSn66Mfgc" x1="22.547" x2="19.348" y1="38.502" y2="38.733" gradientTransform="translate(-2.004 .83)" gradientUnits="userSpaceOnUse"><stop offset="0" stop-color="#e51e25"/><stop offset=".986" stop-color="#d31321"/></linearGradient><path fill="url(#hk31Iw0c7VvpCoSn66Mfgc)" d="M18.81,42.197c0,0,2.607-1.728,2.199-5.723c-0.497-2.13-4.124-2.416-3.852-0.905 c0.508,2.824-0.631,6.829-2.439,9.063C15.747,44.23,17.429,43.377,18.81,42.197z"/><linearGradient id="hk31Iw0c7VvpCoSn66Mfgd" x1="22.246" x2="19.29" y1="38.466" y2="38.68" gradientTransform="translate(-1.822 .755)" gradientUnits="userSpaceOnUse"><stop offset="0" stop-color="#e11d25"/><stop offset=".986" stop-color="#d11322"/></linearGradient><path fill="url(#hk31Iw0c7VvpCoSn66Mfgd)" d="M18.808,42.052c0,0,2.443-1.689,2.038-5.574c-0.465-2.03-3.832-2.325-3.561-0.826 c0.5,2.774-0.538,6.455-2.23,8.622C15.961,43.987,17.523,43.167,18.808,42.052z"/><linearGradient id="hk31Iw0c7VvpCoSn66Mfge" x1="21.944" x2="19.233" y1="38.43" y2="38.627" gradientTransform="translate(-1.64 .68)" gradientUnits="userSpaceOnUse"><stop offset="0" stop-color="#de1c26"/><stop offset=".986" stop-color="#cf1322"/></linearGradient><path fill="url(#hk31Iw0c7VvpCoSn66Mfge)" d="M18.806,41.908c0,0,2.278-1.65,1.876-5.425c-0.433-1.93-3.539-2.233-3.27-0.747 c0.493,2.724-0.445,6.082-2.022,8.181C16.176,43.743,17.618,42.958,18.806,41.908z"/><linearGradient id="hk31Iw0c7VvpCoSn66Mfgf" x1="21.643" x2="19.175" y1="38.394" y2="38.573" gradientTransform="translate(-1.458 .604)" gradientUnits="userSpaceOnUse"><stop offset="0" stop-color="#da1c26"/><stop offset=".986" stop-color="#cd1423"/></linearGradient><path fill="url(#hk31Iw0c7VvpCoSn66Mfgf)" d="M18.804,41.764c0,0,2.114-1.61,1.715-5.276c-0.4-1.83-3.247-2.141-2.979-0.668 c0.485,2.674-0.353,5.708-1.814,7.739C16.391,43.5,17.713,42.748,18.804,41.764z"/><linearGradient id="hk31Iw0c7VvpCoSn66Mfgg" x1="21.342" x2="19.118" y1="38.363" y2="38.524" gradientTransform="translate(-1.275 .528)" gradientUnits="userSpaceOnUse"><stop offset="0" stop-color="#d61b26"/><stop offset=".986" stop-color="#cb1424"/></linearGradient><path fill="url(#hk31Iw0c7VvpCoSn66Mfgg)" d="M18.802,41.62c0,0,1.95-1.571,1.554-5.127c-0.368-1.73-2.955-2.05-2.688-0.589 c0.478,2.623-0.26,5.334-1.606,7.298C16.605,43.256,17.807,42.539,18.802,41.62z"/><linearGradient id="hk31Iw0c7VvpCoSn66Mfgh" x1="21.042" x2="19.062" y1="38.341" y2="38.484" gradientTransform="translate(-1.093 .453)" gradientUnits="userSpaceOnUse"><stop offset="0" stop-color="#d21a27"/><stop offset=".986" stop-color="#c91425"/></linearGradient><path fill="url(#hk31Iw0c7VvpCoSn66Mfgh)" d="M18.8,41.476c0,0,1.785-1.532,1.393-4.977c-0.336-1.63-2.662-1.958-2.397-0.51 c0.471,2.573-0.167,4.96-1.397,6.856C16.82,43.012,17.902,42.329,18.8,41.476z"/><linearGradient id="hk31Iw0c7VvpCoSn66Mfgi" x1="20.742" x2="19.006" y1="38.327" y2="38.453" gradientTransform="translate(-.911 .377)" gradientUnits="userSpaceOnUse"><stop offset="0" stop-color="#cf1927"/><stop offset=".986" stop-color="#c61425"/></linearGradient><path fill="url(#hk31Iw0c7VvpCoSn66Mfgi)" d="M18.798,41.331c0,0,1.621-1.493,1.232-4.828c-0.303-1.53-2.37-1.866-2.106-0.431 c0.463,2.523-0.074,4.587-1.189,6.415C17.035,42.769,17.996,42.119,18.798,41.331z"/><linearGradient id="hk31Iw0c7VvpCoSn66Mfgj" x1="20.444" x2="18.951" y1="38.319" y2="38.427" gradientTransform="translate(-.729 .302)" gradientUnits="userSpaceOnUse"><stop offset="0" stop-color="#cb1828"/><stop offset=".986" stop-color="#c41426"/></linearGradient><path fill="url(#hk31Iw0c7VvpCoSn66Mfgj)" d="M18.797,41.187c0,0,1.456-1.453,1.071-4.679c-0.271-1.43-2.078-1.774-1.815-0.352 c0.456,2.473,0.019,4.213-0.981,5.973C17.25,42.525,18.091,41.91,18.797,41.187z"/><linearGradient id="hk31Iw0c7VvpCoSn66Mfgk" x1="20.146" x2="18.896" y1="38.316" y2="38.406" gradientTransform="translate(-.547 .226)" gradientUnits="userSpaceOnUse"><stop offset="0" stop-color="#c71728"/><stop offset=".986" stop-color="#c21427"/></linearGradient><path fill="url(#hk31Iw0c7VvpCoSn66Mfgk)" d="M18.795,41.043c0,0,1.292-1.414,0.91-4.53c-0.239-1.33-1.785-1.683-1.524-0.273 c0.448,2.423,0.111,3.839-0.773,5.532C17.464,42.282,18.186,41.7,18.795,41.043z"/><linearGradient id="hk31Iw0c7VvpCoSn66Mfgl" x1="19.848" x2="18.835" y1="38.317" y2="38.391" gradientTransform="translate(-.364 .15)" gradientUnits="userSpaceOnUse"><stop offset="0" stop-color="#c31728"/><stop offset=".986" stop-color="#c01528"/></linearGradient><path fill="url(#hk31Iw0c7VvpCoSn66Mfgl)" d="M18.793,40.899c0,0,1.128-1.375,0.748-4.381c-0.207-1.23-1.493-1.591-1.233-0.194 c0.441,2.373,0.204,3.466-0.564,5.09C17.679,42.038,18.28,41.491,18.793,40.899z"/><linearGradient id="hk31Iw0c7VvpCoSn66Mfgm" x1="19.547" x2="18.754" y1="38.323" y2="38.38" gradientTransform="translate(-.182 .075)" gradientUnits="userSpaceOnUse"><stop offset="0" stop-color="#c01629"/><stop offset=".986" stop-color="#be1528"/></linearGradient><path fill="url(#hk31Iw0c7VvpCoSn66Mfgm)" d="M18.791,40.754c0,0,0.963-1.335,0.587-4.232c-0.174-1.13-1.201-1.499-0.942-0.115 c0.433,2.323,0.297,3.092-0.356,4.649C17.894,41.795,18.375,41.281,18.791,40.754z"/><path fill="#bc1529" d="M18.789,40.61c0,0,0.799-1.296,0.426-4.083c-0.142-1.03-0.908-1.408-0.651-0.036 c0.426,2.272,0.39,2.718-0.148,4.207C18.109,41.551,18.47,41.072,18.789,40.61z"/></g><g><linearGradient id="hk31Iw0c7VvpCoSn66Mfgn" x1="40.711" x2="37.511" y1="20.338" y2="20.57" gradientTransform="matrix(0 1 1 0 19.603 -20.777)" gradientUnits="userSpaceOnUse"><stop offset="0" stop-color="#e51e25"/><stop offset=".986" stop-color="#d31321"/></linearGradient><path fill="url(#hk31Iw0c7VvpCoSn66Mfgn)" d="M42.806,18.201c0,0-1.728,2.607-5.723,2.199c-2.13-0.497-2.416-4.124-0.905-3.852 c2.824,0.508,6.829-0.631,9.063-2.439C44.839,15.138,43.985,16.82,42.806,18.201z"/><linearGradient id="hk31Iw0c7VvpCoSn66Mfgo" x1="40.8" x2="37.094" y1="20.548" y2="20.817" gradientTransform="matrix(.0909 .9091 .9091 .0909 17.82 -18.888)" gradientUnits="userSpaceOnUse"><stop offset="0" stop-color="#e11d25"/><stop offset=".986" stop-color="#d11322"/></linearGradient><path fill="url(#hk31Iw0c7VvpCoSn66Mfgo)" d="M42.661,18.199c0,0-1.689,2.443-5.574,2.038c-2.03-0.465-2.325-3.832-0.826-3.561 c2.774,0.5,6.455-0.538,8.622-2.23C44.596,15.352,43.776,16.914,42.661,18.199z"/><linearGradient id="hk31Iw0c7VvpCoSn66Mfgp" x1="41.017" x2="36.493" y1="20.87" y2="21.198" gradientTransform="matrix(.1818 .8182 .8182 .1818 16.038 -16.999)" gradientUnits="userSpaceOnUse"><stop offset="0" stop-color="#de1c26"/><stop offset=".986" stop-color="#cf1322"/></linearGradient><path fill="url(#hk31Iw0c7VvpCoSn66Mfgp)" d="M42.517,18.197c0,0-1.65,2.278-5.425,1.876c-1.93-0.433-2.233-3.539-0.747-3.27 c2.724,0.493,6.082-0.445,8.181-2.022C44.352,15.567,43.566,17.009,42.517,18.197z"/><linearGradient id="hk31Iw0c7VvpCoSn66Mfgq" x1="41.544" x2="35.502" y1="21.434" y2="21.872" gradientTransform="matrix(.2727 .7273 .7273 .2727 14.256 -15.11)" gradientUnits="userSpaceOnUse"><stop offset="0" stop-color="#da1c26"/><stop offset=".986" stop-color="#cd1423"/></linearGradient><path fill="url(#hk31Iw0c7VvpCoSn66Mfgq)" d="M42.373,18.195c0,0-1.61,2.114-5.276,1.715c-1.83-0.4-2.141-3.247-0.668-2.979 c2.674,0.485,5.708-0.353,7.739-1.814C44.108,15.782,43.357,17.104,42.373,18.195z"/><linearGradient id="hk31Iw0c7VvpCoSn66Mfgr" x1="43.024" x2="33.349" y1="22.724" y2="23.425" gradientTransform="matrix(.3636 .6364 .6364 .3636 12.474 -13.221)" gradientUnits="userSpaceOnUse"><stop offset="0" stop-color="#d61b26"/><stop offset=".986" stop-color="#cb1424"/></linearGradient><path fill="url(#hk31Iw0c7VvpCoSn66Mfgr)" d="M42.229,18.193c0,0-1.571,1.95-5.127,1.554c-1.73-0.368-2.05-2.955-0.589-2.688 c2.623,0.478,5.334-0.26,7.298-1.606C43.865,15.997,43.147,17.198,42.229,18.193z"/><linearGradient id="hk31Iw0c7VvpCoSn66Mfgs" x1="51.194" x2="23.08" y1="29.131" y2="31.168" gradientTransform="matrix(.4545 .5455 .5455 .4545 10.692 -11.333)" gradientUnits="userSpaceOnUse"><stop offset="0" stop-color="#d21a27"/><stop offset=".986" stop-color="#c91425"/></linearGradient><path fill="url(#hk31Iw0c7VvpCoSn66Mfgs)" d="M42.084,18.191c0,0-1.532,1.785-4.977,1.393c-1.63-0.336-1.958-2.662-0.51-2.397 c2.573,0.471,4.96-0.167,6.856-1.397C43.621,16.211,42.938,17.293,42.084,18.191z"/><linearGradient id="hk31Iw0c7VvpCoSn66Mfgt" x1="73.195" x2="45.718" y1="6.476" y2="8.467" gradientTransform="matrix(.5455 .4545 .4545 .5455 8.91 -9.444)" gradientUnits="userSpaceOnUse"><stop offset="0" stop-color="#cf1927"/><stop offset=".986" stop-color="#c61425"/></linearGradient><path fill="url(#hk31Iw0c7VvpCoSn66Mfgt)" d="M41.94,18.19c0,0-1.493,1.621-4.828,1.232c-1.53-0.303-1.866-2.37-0.431-2.106 c2.523,0.463,4.587-0.074,6.415-1.189C43.378,16.426,42.728,17.388,41.94,18.19z"/><linearGradient id="hk31Iw0c7VvpCoSn66Mfgu" x1="49.734" x2="40.658" y1="15.152" y2="15.809" gradientTransform="matrix(.6364 .3636 .3636 .6364 7.128 -7.555)" gradientUnits="userSpaceOnUse"><stop offset="0" stop-color="#cb1828"/><stop offset=".986" stop-color="#c41426"/></linearGradient><path fill="url(#hk31Iw0c7VvpCoSn66Mfgu)" d="M41.796,18.188c0,0-1.453,1.456-4.679,1.071c-1.43-0.271-1.774-2.078-0.352-1.815 c2.473,0.456,4.213,0.019,5.973-0.981C43.134,16.641,42.519,17.482,41.796,18.188z"/><linearGradient id="hk31Iw0c7VvpCoSn66Mfgv" x1="45.07" x2="39.599" y1="16.84" y2="17.236" gradientTransform="matrix(.7273 .2727 .2727 .7273 5.346 -5.666)" gradientUnits="userSpaceOnUse"><stop offset="0" stop-color="#c71728"/><stop offset=".986" stop-color="#c21427"/></linearGradient><path fill="url(#hk31Iw0c7VvpCoSn66Mfgv)" d="M41.652,18.186c0,0-1.414,1.292-4.53,0.91c-1.33-0.239-1.683-1.785-0.273-1.524 c2.423,0.448,3.839,0.111,5.532-0.773C42.891,16.856,42.309,17.577,41.652,18.186z"/><linearGradient id="hk31Iw0c7VvpCoSn66Mfgw" x1="43.078" x2="39.121" y1="17.521" y2="17.808" gradientTransform="matrix(.8182 .1818 .1818 .8182 3.564 -3.778)" gradientUnits="userSpaceOnUse"><stop offset="0" stop-color="#c31728"/><stop offset=".986" stop-color="#c01528"/></linearGradient><path fill="url(#hk31Iw0c7VvpCoSn66Mfgw)" d="M41.508,18.184c0,0-1.375,1.128-4.381,0.748c-1.23-0.207-1.591-1.493-0.194-1.233 c2.373,0.441,3.466,0.204,5.09-0.564C42.647,17.07,42.1,17.671,41.508,18.184z"/><linearGradient id="hk31Iw0c7VvpCoSn66Mfgx" x1="41.97" x2="38.843" y1="17.882" y2="18.109" gradientTransform="matrix(.9091 .0909 .0909 .9091 1.782 -1.889)" gradientUnits="userSpaceOnUse"><stop offset="0" stop-color="#c01629"/><stop offset=".986" stop-color="#be1528"/></linearGradient><path fill="url(#hk31Iw0c7VvpCoSn66Mfgx)" d="M41.363,18.182c0,0-1.335,0.963-4.232,0.587c-1.13-0.174-1.499-1.201-0.115-0.942 c2.323,0.433,3.092,0.297,4.649-0.356C42.404,17.285,41.89,17.766,41.363,18.182z"/><path fill="#bc1529" d="M41.219,18.18c0,0-1.296,0.799-4.083,0.426c-1.03-0.142-1.408-0.908-0.036-0.651 c2.272,0.426,2.718,0.39,4.207-0.148C42.16,17.5,41.681,17.861,41.219,18.18z"/></g><radialGradient id="hk31Iw0c7VvpCoSn66Mfgy" cx="40.666" cy="8.17" r="5.99" fx="34.83" fy="6.824" gradientTransform="translate(-2.004 .83)" gradientUnits="userSpaceOnUse"><stop offset="0" stop-color="#f9afaf"/><stop offset="1" stop-color="#ee3d32"/></radialGradient><path fill="url(#hk31Iw0c7VvpCoSn66Mfgy)" d="M34.071,16.85l8.375-14.244c-0.132-0.088-0.273-0.168-0.41-0.25l-8.362,14.222	C33.806,16.674,33.938,16.762,34.071,16.85z"/><radialGradient id="hk31Iw0c7VvpCoSn66Mfgz" cx="37.955" cy="6.557" r="5.983" gradientTransform="translate(-2.004 .83)" gradientUnits="userSpaceOnUse"><stop offset="0" stop-color="#ff7448"/><stop offset="1" stop-color="#db1625"/></radialGradient><path fill="url(#hk31Iw0c7VvpCoSn66Mfgz)" d="M33.801,16.67l8.369-14.233c-0.136-0.084-0.269-0.172-0.41-0.25l-8.343,14.19	C33.544,16.478,33.672,16.579,33.801,16.67z"/><radialGradient id="hk31Iw0c7VvpCoSn66MfgA" cx="12.171" cy="36.62" r="5.987" gradientTransform="translate(-2.004 .83)" gradientUnits="userSpaceOnUse"><stop offset="0" stop-color="#f9afaf"/><stop offset="1" stop-color="#ee3d32"/></radialGradient><path fill="url(#hk31Iw0c7VvpCoSn66MfgA)" d="M3.178,41.833l14.233-8.369c-0.088-0.132-0.177-0.265-0.274-0.396L2.922,41.426	C3.004,41.565,3.09,41.7,3.178,41.833z"/><radialGradient id="hk31Iw0c7VvpCoSn66MfgB" cx="10.527" cy="34.346" r="5.98" gradientTransform="translate(-2.004 .83)" gradientUnits="userSpaceOnUse"><stop offset="0" stop-color="#ff7448"/><stop offset="1" stop-color="#db1625"/></radialGradient><path fill="url(#hk31Iw0c7VvpCoSn66MfgB)" d="M3.005,41.559l14.227-8.365c-0.092-0.129-0.195-0.256-0.296-0.384L2.758,41.146	C2.836,41.288,2.922,41.422,3.005,41.559z"/></svg>